<svg version="1" xmlns="http://www.w3.org/2000/svg" width="933.333" height="933.333" viewBox="0 0 700.000000 700.000000"><path d="M71.7 1.6C36.4 8 7.7 36.9 1.5 72.5.2 80.2 0 114.1 0 350s.2 269.8 1.5 277.5c6.3 36 35 64.7 71 71 7.7 1.3 41.6 1.5 277.5 1.5s269.8-.2 277.5-1.5c36-6.3 64.7-35 71-71 1.3-7.7 1.5-41.6 1.5-277.5s-.2-269.8-1.5-277.5c-6.3-36-35-64.7-71-71C619.8.2 586.1 0 349.1.1 122.3.2 78.3.4 71.7 1.6zm288.8 64.8c27.1 8.7 54.5 34.8 80.1 76.2 3.5 5.7 6.4 10.5 6.4 10.7 0 .2-6.8-1.6-15-3.9-57.1-16.2-122.9-20.2-181.2-10.8-5.4.9-10.2 1.4-10.8 1.2-.6-.2 2-4.8 5.7-10.3 18.9-27.8 39.6-48.1 59.3-58 13.3-6.6 21.8-8.5 36.5-8.1 8.4.3 12.9 1 19 3zm3.5 139.1c44.8 6.1 88.3 21.8 124.1 44.8l5.5 3.5 11.2 33.4c20.6 61.8 41.5 141.9 56.2 216.1 2.6 12.9 3.3 11.2-11.3 26.4-55 57.1-142.9 82.1-216.7 61.6-53.2-14.8-95.7-50.2-110.4-92.1-4.6-13-6-21-5.9-34.7 0-10.1.5-14.7 2.1-20.9 5.3-19.2 13.6-33.1 29.1-48.7 26.6-26.5 62.2-40.9 101.6-40.9 51.1 0 97.5 35.9 102.1 79.1 3.2 29.2-23.6 58.8-60.6 67-9.5 2.1-31.7 1.8-40-.5-17.2-4.8-31.1-15.3-37.2-28.2-3-6.4-3.3-7.7-3.3-16.9 0-9.3.2-10.5 3.2-16.6 5.9-11.9 17.9-20 32.4-21.8 25.4-3.2 51.3 13.4 46.9 30-1.7 6.2-9.2 13.3-15.8 14.9-9.5 2.2-22.2-.8-28.4-6.7-3.4-3.3-3.5-5.5-.3-12.7 1.8-4.2 2.2-5.8 1.3-6.1-10-3.4-21.4-6.1-22.1-5.1-1.9 2.9-5.7 17.2-5.7 21.6 0 6.7 3.5 15.5 8.2 20.6 7.5 8.2 24.1 14.4 38.3 14.4 9 0 20.4-2.8 29.3-7.1 23.7-11.5 33.4-37.3 22.6-59.7-4.1-8.5-16.8-20.6-27.2-26-42.1-21.9-95.1-3.8-111.2 38-9.5 24.7-4.4 49.4 14.7 70.7 20.1 22.3 49.2 34.2 80.7 32.8 53.1-2.2 101.1-37 115.3-83.4 2.3-7.7 2.6-10.5 2.6-22.8.1-20.7-4.1-35-15.2-52.1-25-38.8-75.6-63.8-133.1-66-68.4-2.7-134.5 34.7-164.4 92.9-16 31.2-20.7 63.4-14.1 95.9 7.3 35.8 31.7 71.5 66.7 97.8 35 26.4 76.8 43.5 124 50.6 16.6 2.5 54.5 3 70.8 1 26.7-3.4 49.3-9.2 73.2-18.7 24.4-9.7 50-23.9 67.6-37.6 3-2.4 5.7-4.1 5.9-4 1 1 15.3 101.8 15.3 107.9 0 1.7-12.2 1.8-241.5 1.8-132.8 0-241.5-.2-241.5-.5 0-.2 2-18.3 4.5-40.2 23.2-206.6 48.7-350.7 74.1-419.5l3.6-9.7 7.7-2.9c27.5-10.5 60.1-18.4 87.6-21.1 6.1-.6 12.4-1.3 14-1.5 7-1 52.7.4 63.5 1.9z"/></svg>