<svg xmlns="http://www.w3.org/2000/svg" width="374.938" height="132.947" viewBox="0 0 374.938 132.947"><g fill="#FFF"><path d="M68.775 50.14c0 3.403-.174 5.994-.506 7.796-.52 2.975-1.53 5.283-3.024 6.958-2.438 2.668-5.872 3.996-10.274 3.996-2.74 0-5.227-.58-7.448-1.735-2.448-1.297-4.178-3.076-5.217-5.36-.893-2.093-1.34-4.43-1.34-7.013V24.05h8.984v9.21h18.825v6.5H49.952v14.127c0 1.754.13 3.083.39 3.99.607 2.06 2.19 3.09 4.757 3.09 1.49 0 2.654-.464 3.463-1.355 1.195-1.29 1.795-4.06 1.795-8.313v-6.256h8.418v5.095zM81.396 39.762h-9.064v-6.5h9.064v6.5zm0 27.852h-9.064v-22.57h9.064v22.57zM134.237 67.614h-8.865V46.91c0-2.235-.558-3.99-1.667-5.276-.94-1.158-2.14-1.738-3.592-1.738-1.54 0-2.874.63-3.985 1.866-1.204 1.375-1.804 3.167-1.804 5.402v20.45h-9.045V46.98c0-2.316-.27-3.97-.83-4.957-.817-1.324-2.338-2-4.566-2-3.683 0-5.535 2.238-5.535 6.702v20.89h-9.047V33.26h8.538v3.29c0 1.235.03 1.866.06 1.866 0-.042.032-.084.066-.133 1.34-2.058 2.674-3.536 4.052-4.44 1.545-.985 3.47-1.492 5.78-1.492 2.318 0 4.166.434 5.56 1.264 1.39.837 2.715 2.267 3.956 4.28 1.24-1.808 2.574-3.18 4.003-4.123 1.427-.947 3.18-1.42 5.23-1.42 2.183 0 4.283.563 6.274 1.683 1.982 1.11 3.38 2.556 4.196 4.33.816 1.773 1.22 3.628 1.22 5.557v23.694zM168.782 52.837H145.23c.208 2.825 1.102 5.004 2.692 6.532 1.36 1.286 3.037 1.92 5.007 1.92 1.463 0 2.765-.34 3.905-1.02 1.164-.707 1.907-1.626 2.25-2.78h9.258c-1.025 3.476-2.874 6.175-5.524 8.08-2.652 1.91-5.81 2.883-9.437 2.883-11.438 0-17.153-6.26-17.153-18.733 0-5.29 1.447-9.47 4.34-12.627 2.89-3.152 6.947-4.743 12.17-4.743 10.692 0 16.042 6.836 16.042 20.487zm-9.24-5.724c-.214-2.31-.985-4.147-2.338-5.48-1.353-1.332-2.908-1.998-4.663-1.998-1.71 0-3.19.635-4.43 1.873-1.37 1.332-2.226 3.205-2.567 5.604h13.998zM202.245 67.614h-9.048V46.802c0-2.396-.383-4.11-1.155-5.1-.9-1.16-2.49-1.73-4.76-1.73-2.226 0-3.945.74-5.165 2.244-1.22 1.52-1.834 3.41-1.834 5.678v19.72h-9.052V24.05h9.053v13.72c.684-1.517 1.967-2.744 3.864-3.65 1.862-.915 3.95-1.375 6.21-1.375 3.254 0 5.99.868 8.164 2.58 2.473 1.986 3.726 4.8 3.726 8.464v23.824zM239.558 50.432c0 5.443-1.563 9.813-4.687 13.087-3.132 3.284-7.365 4.934-12.71 4.934-5.444 0-9.737-1.667-12.885-4.99-3.137-3.338-4.72-7.67-4.72-13.032 0-5.41 1.573-9.764 4.685-13.08 3.128-3.324 7.435-5.002 12.92-5.002 5.488 0 9.78 1.705 12.896 5.095 2.987 3.296 4.502 7.62 4.502 12.987zm-9.185.04c0-6.97-2.724-10.45-8.212-10.45-5.526 0-8.295 3.48-8.295 10.45 0 6.945 2.77 10.44 8.296 10.44 5.49 0 8.213-3.495 8.213-10.44zM273.207 67.614h-8.554V64.57c0-1.197 0-1.8-.042-1.8 0 .04-.028.066-.076.066-2.26 3.867-5.73 5.803-10.406 5.803-3.197 0-5.88-1.062-8.017-3.16-2.437-2.32-3.67-5.528-3.67-9.608v-22.61h9.072v21.265c0 4.248 1.91 6.384 5.77 6.384 2.265 0 4.008-.745 5.194-2.2 1.206-1.463 1.807-3.333 1.807-5.606V33.26h8.924v34.354zM307.17 56.65c0 2.45-.596 4.575-1.788 6.387-2.567 3.732-7.03 5.602-13.362 5.602-4.318 0-8.02-.985-11.097-2.976-3.438-2.225-5.162-5.235-5.22-9.015h9.326c0 1.673.732 2.98 2.176 3.933 1.277.806 2.867 1.21 4.738 1.21 1.68 0 3.13-.318 4.344-.988 1.22-.67 1.84-1.54 1.84-2.615 0-1.416-1.82-2.528-5.465-3.35-5.386-1.24-8.803-2.205-10.205-2.9-3.647-1.752-5.468-4.462-5.468-8.117 0-2.145.52-4.108 1.55-5.855 1.016-1.772 2.744-3.17 5.193-4.21 2.455-1.076 5.074-1.592 7.9-1.592 3.855 0 7.09.928 9.71 2.775 2.98 2.052 4.595 4.97 4.805 8.75h-8.955c-.48-3.05-2.482-4.568-6.053-4.568-1.473 0-2.742.33-3.802.966-1.073.652-1.61 1.465-1.61 2.445 0 1.29 1.842 2.336 5.537 3.16 5.37 1.205 8.828 2.178 10.38 2.904 3.69 1.81 5.524 4.493 5.524 8.052zM340.763 52.837h-23.565c.216 2.825 1.095 5.004 2.692 6.532 1.37 1.286 3.04 1.92 5.014 1.92 1.452 0 2.755-.34 3.905-1.02 1.17-.707 1.916-1.626 2.273-2.78h9.237c-1.027 3.476-2.866 6.175-5.52 8.08-2.66 1.91-5.817 2.883-9.448 2.883-11.434 0-17.15-6.26-17.15-18.733 0-5.29 1.45-9.47 4.336-12.627 2.892-3.152 6.946-4.743 12.173-4.743 10.705 0 16.053 6.836 16.053 20.487zm-9.24-5.724c-.23-2.31-1.01-4.147-2.35-5.48-1.357-1.332-2.91-1.998-4.66-1.998-1.715 0-3.18.635-4.422 1.873-1.366 1.332-2.238 3.205-2.58 5.604h14.012z"/><g><path d="M352.363 63.007c0 1.632-.468 2.942-1.41 3.93-.947.993-2.206 1.49-3.828 1.49-1.64 0-2.943-.51-3.885-1.51-.927-.998-1.415-2.3-1.415-3.91 0-1.64.47-2.955 1.415-3.948.94-1.013 2.233-1.503 3.885-1.503 1.645 0 2.943.51 3.886 1.537.9.988 1.353 2.287 1.353 3.913zm-2.767 0c0-2.097-.827-3.135-2.472-3.135-1.66 0-2.5 1.04-2.5 3.135 0 2.095.84 3.15 2.5 3.15 1.645.002 2.472-1.054 2.472-3.15zM362.72 64.078c0 1.37-.492 2.45-1.47 3.26-.903.74-1.99 1.117-3.257 1.117-1.217 0-2.266-.36-3.124-1.088-.925-.813-1.407-1.698-1.407-3.09h2.518c0 .652.22.945.587 1.322.343.33.77.504 1.284.504.57 0 1.063-.202 1.483-.576.464-.438.68-.8.68-1.5v-1.582c-.195.466-.536.822-1.05 1.074-.513.254-1.077.388-1.71.388-1.006 0-1.864-.287-2.568-.89-.826-.67-1.222-1.604-1.222-2.797v-2.4h2.736v1.99c0 1.27.576 1.905 1.72 1.905.63 0 1.13-.167 1.514-.534.384-.354.58-.805.58-1.37v-1.99h2.706v6.258z"/></g><path fill-rule="evenodd" clip-rule="evenodd" d="M347.982 15.282c9.915-5.072 20.568-3.677 26.956 3.86-9.488-1.692-22.53-5.508-30.813 1.928C344.698 7.626 333.1 5.373 322.06 2.1c13.24-6.892 21.82 4.672 25.922 13.182z"/><g><path d="M13.518 4.31c2.346 0 4.63.367 6.82 1.074-1.76-3.06-3.672-4.756-5.684-4.756-1.834 0-3.602 1.444-5.25 4.062 1.358-.25 2.745-.38 4.114-.38zM10.608 67.526c0-.22-.014-.418-.014-.64 0-6.648 1.765-9.298 4.827-9.298 3.06 0 4.813 2.65 4.813 9.3v.638h10.59c-.4-7.902-2.597-31.992-3.9-39.573-2.588 2.058-5.91 3.26-9.27 3.26-.16 0-.328-.014-.488-.018-2.393-.08-4.82-.78-6.814-1.96-2.12-1.255-3.612-2.943-4.33-4.87-.695-1.86-.572-3.914.342-5.79.5-1.025 1.2-1.94 2.095-2.713.918-.813 2-1.423 3.212-1.837.934-.318 1.93-.482 2.984-.482 1.973 0 3.948.586 5.433 1.604 1.654 1.136 2.587 2.703 2.636 4.42.035 1.285-.522 2.582-1.58 3.628-1.27 1.276-3.065 2.037-4.815 2.037-1.68 0-3.174-.722-4.21-2.026-.717-.914-.93-2.127-.564-3.226.394-1.19 1.38-2.092 2.696-2.46.348-.106.728-.155 1.116-.155 1.416 0 2.772.683 3.368 1.708.43.74.41 1.584-.055 2.347-.483.775-1.473 1.266-2.582 1.266-.927 0-1.723-.35-2.13-.914-.22-.32-.437-.868-.136-1.632l.188-.457.48.144.13.027.583.17-.245.56c-.052.125-.042.223.028.32.174.27.705.47 1.2.47.313 0 .585-.076.752-.22.426-.348.56-.703.433-1.056-.237-.623-1.185-1.136-2.1-1.136-.173 0-.34.02-.5.053-.813.17-1.396.648-1.622 1.33-.225.696-.066 1.498.456 2.063.614.683 1.563 1.057 2.665 1.057.898 0 1.784-.24 2.496-.7 1.36-.87 1.91-2.094 1.544-3.453-.5-1.852-2.542-3.373-4.767-3.516-.163-.017-.334-.017-.495-.017-1.995 0-3.893.772-5.234 2.097C8.746 18.962 8.17 20.3 8.21 21.63c.104 3.707 4.135 6.83 8.81 6.83h.09c3.59-.034 7.106-1.774 9.1-4.358-1.045-5.284-2.272-9.858-3.626-13.527-2.037-1.354-4.47-2.267-6.974-2.538-.607-.06-1.235-.1-1.862-.1-2.368 0-4.693.494-6.828 1.366C3.104 18.78.688 54.923 0 67.515l1.047.01h9.56z"/></g></g><g opacity=".5"><linearGradient id="a" gradientUnits="userSpaceOnUse" x1="54.872" y1="113.589" x2="54.872" y2="68.749"><stop offset="0" stop-color="#FFF" stop-opacity="0"/><stop offset=".906" stop-color="#FFF" stop-opacity=".906"/><stop offset="1" stop-color="#FFF"/></linearGradient><path fill="url(#a)" d="M68.775 92.59h-8.418v-6.252c0-4.26-.6-7.027-1.795-8.313-.81-.89-1.972-1.358-3.464-1.358-2.566 0-4.15 1.032-4.756 3.093-.262.908-.39 2.237-.39 3.995v14.122h18.823v6.5H49.952v9.213h-8.984V82.857c0-2.58.447-4.923 1.34-7.015 1.04-2.28 2.77-4.062 5.217-5.352 2.22-1.163 4.707-1.742 7.448-1.742 4.402 0 7.836 1.325 10.274 3.996 1.496 1.674 2.504 3.982 3.023 6.957.332 1.8.506 4.396.506 7.794v5.096z"/><linearGradient id="b" gradientUnits="userSpaceOnUse" x1="76.863" y1="104.376" x2="76.863" y2="70.026"><stop offset="0" stop-color="#FFF" stop-opacity="0"/><stop offset=".906" stop-color="#FFF" stop-opacity=".906"/><stop offset="1" stop-color="#FFF"/></linearGradient><path fill="url(#b)" d="M81.396 104.376h-9.064v-6.5h9.064v6.5zm0-11.786h-9.064V70.026h9.064V92.59z"/><linearGradient id="c" gradientUnits="userSpaceOnUse" x1="109.77" y1="105.287" x2="109.77" y2="70.026"><stop offset="0" stop-color="#FFF" stop-opacity="0"/><stop offset=".906" stop-color="#FFF" stop-opacity=".906"/><stop offset="1" stop-color="#FFF"/></linearGradient><path fill="url(#c)" d="M134.237 93.716c0 1.936-.404 3.784-1.22 5.56-.815 1.78-2.214 3.22-4.195 4.33-1.99 1.124-4.09 1.68-6.273 1.68-2.052 0-3.806-.47-5.232-1.418-1.43-.945-2.762-2.318-4.003-4.125-1.24 2.015-2.567 3.44-3.955 4.283-1.395.826-3.242 1.26-5.562 1.26-2.308 0-4.233-.504-5.78-1.49-1.376-.9-2.712-2.38-4.05-4.443-.035-.042-.067-.088-.067-.125-.03 0-.058.623-.058 1.86v3.29h-8.538V70.025h9.046v20.882c0 4.473 1.852 6.703 5.535 6.703 2.228 0 3.75-.67 4.565-2 .56-.98.83-2.635.83-4.955v-20.63h9.045v20.45c0 2.23.6 4.022 1.804 5.397 1.11 1.24 2.443 1.87 3.984 1.87 1.45 0 2.65-.58 3.592-1.74 1.11-1.285 1.667-3.042 1.667-5.275v-20.7h8.865v23.69z"/><linearGradient id="d" gradientUnits="userSpaceOnUse" x1="152.505" y1="105.287" x2="152.505" y2="69.184"><stop offset="0" stop-color="#FFF" stop-opacity="0"/><stop offset=".906" stop-color="#FFF" stop-opacity=".906"/><stop offset="1" stop-color="#FFF"/></linearGradient><path fill="url(#d)" d="M152.74 105.287c-5.223 0-9.28-1.594-12.17-4.742-2.894-3.15-4.34-7.34-4.34-12.628 0-12.478 5.715-18.732 17.153-18.732 3.626 0 6.785.973 9.436 2.882 2.65 1.908 4.498 4.6 5.523 8.082h-9.26c-.34-1.15-1.083-2.072-2.248-2.784-1.14-.673-2.442-1.014-3.906-1.014-1.97 0-3.65.638-5.008 1.92-1.59 1.523-2.483 3.7-2.692 6.527h23.552c0 13.653-5.35 20.487-16.04 20.487zm-7.197-14.757c.342 2.396 1.197 4.265 2.566 5.596 1.24 1.242 2.72 1.878 4.43 1.878 1.755 0 3.31-.667 4.664-2 1.353-1.332 2.124-3.17 2.337-5.474h-13.997z"/><linearGradient id="e" gradientUnits="userSpaceOnUse" x1="186.737" y1="113.589" x2="186.737" y2="70.026"><stop offset="0" stop-color="#FFF" stop-opacity="0"/><stop offset=".906" stop-color="#FFF" stop-opacity=".906"/><stop offset="1" stop-color="#FFF"/></linearGradient><path fill="url(#e)" d="M202.245 93.85c0 3.66-1.253 6.482-3.725 8.46-2.175 1.716-4.91 2.586-8.163 2.586-2.26 0-4.35-.46-6.21-1.373-1.897-.908-3.18-2.142-3.865-3.652v13.72h-9.052V70.026h9.052V89.74c0 2.272.614 4.16 1.834 5.678 1.22 1.51 2.94 2.247 5.165 2.247 2.272 0 3.86-.568 4.76-1.728.773-.997 1.156-2.705 1.156-5.1v-20.81h9.048v23.822z"/><linearGradient id="f" gradientUnits="userSpaceOnUse" x1="222.058" y1="105.287" x2="222.058" y2="69.184"><stop offset="0" stop-color="#FFF" stop-opacity="0"/><stop offset=".906" stop-color="#FFF" stop-opacity=".906"/><stop offset="1" stop-color="#FFF"/></linearGradient><path fill="url(#f)" d="M235.056 100.193c-3.115 3.386-7.407 5.094-12.896 5.094-5.485 0-9.792-1.673-12.92-5-3.11-3.317-4.684-7.67-4.684-13.08 0-5.36 1.582-9.694 4.72-13.032 3.146-3.32 7.44-4.99 12.884-4.99 5.345 0 9.578 1.65 12.71 4.934 3.125 3.274 4.688 7.642 4.688 13.088 0 5.366-1.515 9.684-4.502 12.985zM222.16 76.727c-5.526 0-8.295 3.493-8.295 10.44 0 6.964 2.77 10.443 8.296 10.443 5.49 0 8.213-3.48 8.213-10.442 0-6.948-2.724-10.44-8.212-10.44z"/><linearGradient id="g" gradientUnits="userSpaceOnUse" x1="257.823" y1="104.376" x2="257.823" y2="68.996"><stop offset="0" stop-color="#FFF" stop-opacity="0"/><stop offset=".906" stop-color="#FFF" stop-opacity=".906"/><stop offset="1" stop-color="#FFF"/></linearGradient><path fill="url(#g)" d="M273.207 104.376h-8.924V84.53c0-2.27-.6-4.14-1.807-5.603-1.187-1.454-2.93-2.2-5.193-2.2-3.86 0-5.77 2.134-5.77 6.39v21.26h-9.074V81.763c0-4.08 1.232-7.285 3.67-9.607 2.14-2.1 4.82-3.16 8.018-3.16 4.678 0 8.146 1.94 10.406 5.807.048 0 .077.022.077.066.043 0 .043-.606.043-1.8v-3.042h8.554v34.35z"/><linearGradient id="h" gradientUnits="userSpaceOnUse" x1="291.437" y1="105.469" x2="291.437" y2="68.996"><stop offset="0" stop-color="#FFF" stop-opacity="0"/><stop offset=".906" stop-color="#FFF" stop-opacity=".906"/><stop offset="1" stop-color="#FFF"/></linearGradient><path fill="url(#h)" d="M301.646 89.042c-1.552.723-5.01 1.695-10.38 2.9-3.695.824-5.538 1.875-5.538 3.16 0 .978.538 1.79 1.61 2.44 1.06.643 2.33.97 3.803.97 3.57 0 5.574-1.515 6.054-4.566h8.955c-.21 3.78-1.827 6.7-4.806 8.753-2.62 1.846-5.855 2.77-9.71 2.77-2.826 0-5.445-.515-7.9-1.586-2.45-1.045-4.178-2.447-5.193-4.215-1.027-1.752-1.55-3.715-1.55-5.853 0-3.65 1.82-6.37 5.47-8.126 1.4-.688 4.818-1.652 10.204-2.896 3.646-.823 5.465-1.932 5.465-3.345 0-1.08-.622-1.95-1.84-2.62-1.214-.665-2.666-.988-4.345-.988-1.87 0-3.46.41-4.738 1.213-1.443.95-2.177 2.256-2.177 3.932h-9.326c.058-3.778 1.782-6.788 5.22-9.013 3.076-1.992 6.778-2.98 11.097-2.98 6.334 0 10.796 1.874 13.363 5.61 1.192 1.804 1.787 3.936 1.787 6.382 0 3.565-1.834 6.247-5.524 8.056z"/><linearGradient id="i" gradientUnits="userSpaceOnUse" x1="324.484" y1="105.287" x2="324.484" y2="69.184"><stop offset="0" stop-color="#FFF" stop-opacity="0"/><stop offset=".906" stop-color="#FFF" stop-opacity=".906"/><stop offset="1" stop-color="#FFF"/></linearGradient><path fill="url(#i)" d="M324.71 105.287c-5.226 0-9.28-1.594-12.172-4.742-2.886-3.15-4.335-7.34-4.335-12.628 0-12.478 5.716-18.732 17.15-18.732 3.63 0 6.787.973 9.446 2.882 2.653 1.908 4.492 4.6 5.52 8.082h-9.237c-.357-1.15-1.103-2.072-2.274-2.784-1.15-.673-2.454-1.014-3.906-1.014-1.973 0-3.643.638-5.014 1.92-1.598 1.523-2.477 3.7-2.692 6.527h23.565c0 13.653-5.348 20.487-16.052 20.487zm-7.2-14.757c.342 2.396 1.214 4.265 2.58 5.596 1.243 1.242 2.708 1.878 4.423 1.878 1.75 0 3.303-.667 4.66-2 1.34-1.332 2.118-3.17 2.35-5.474H317.51z"/><g><linearGradient id="j" gradientUnits="userSpaceOnUse" x1="347.093" y1="80.078" x2="347.093" y2="69.215"><stop offset="0" stop-color="#FFF" stop-opacity="0"/><stop offset=".906" stop-color="#FFF" stop-opacity=".906"/><stop offset="1" stop-color="#FFF"/></linearGradient><path fill="url(#j)" d="M351.01 78.548c-.942 1.024-2.24 1.53-3.886 1.53-1.65 0-2.943-.49-3.885-1.5-.946-.996-1.416-2.31-1.416-3.948 0-1.61.488-2.912 1.415-3.91.94-1.003 2.244-1.505 3.884-1.505 1.622 0 2.88.488 3.828 1.485.942.99 1.41 2.298 1.41 3.93 0 1.625-.452 2.925-1.352 3.918zm-3.885-7.066c-1.66 0-2.5 1.053-2.5 3.148 0 2.097.84 3.135 2.5 3.135 1.645 0 2.472-1.038 2.472-3.135 0-2.095-.828-3.148-2.472-3.148z"/><linearGradient id="k" gradientUnits="userSpaceOnUse" x1="358.091" y1="79.82" x2="358.091" y2="69.184"><stop offset="0" stop-color="#FFF" stop-opacity="0"/><stop offset=".906" stop-color="#FFF" stop-opacity=".906"/><stop offset="1" stop-color="#FFF"/></linearGradient><path fill="url(#k)" d="M362.72 79.82h-2.707v-1.994c0-.56-.195-1.016-.58-1.37-.382-.366-.882-.53-1.512-.53-1.144 0-1.72.63-1.72 1.9v1.994h-2.737v-2.405c0-1.19.396-2.127 1.222-2.798.704-.6 1.563-.886 2.57-.886.63 0 1.195.14 1.71.388.512.25.853.604 1.048 1.074V73.61c0-.7-.216-1.06-.68-1.503-.42-.37-.913-.573-1.482-.573-.515 0-.94.17-1.283.51-.367.373-.586.666-.586 1.318h-2.517c0-1.394.482-2.28 1.406-3.093.857-.728 1.906-1.086 3.123-1.086 1.266 0 2.354.38 3.258 1.12.978.806 1.47 1.886 1.47 3.257v6.26z"/></g><g><linearGradient id="l" gradientUnits="userSpaceOnUse" x1="9.402" y1="132.947" x2="9.402" y2="132.947"><stop offset="0" stop-color="#FFF" stop-opacity="0"/><stop offset=".906" stop-color="#FFF" stop-opacity=".906"/><stop offset="1" stop-color="#FFF"/></linearGradient><linearGradient id="m" gradientUnits="userSpaceOnUse" x1="15.412" y1="129.698" x2="15.412" y2="70.113"><stop offset="0" stop-color="#FFF" stop-opacity="0"/><stop offset=".906" stop-color="#FFF" stop-opacity=".906"/><stop offset="1" stop-color="#FFF"/></linearGradient><path fill="url(#m)" d="M10.608 70.113c0 .214-.014.413-.014.642 0 6.646 1.765 9.296 4.827 9.296 3.06 0 4.813-2.65 4.813-9.295v-.642h10.59c-.4 7.9-2.597 31.987-3.9 39.57-2.588-2.06-5.91-3.26-9.27-3.26-.16 0-.328.012-.488.014-2.393.083-4.82.78-6.814 1.965-2.12 1.255-3.612 2.94-4.33 4.87-.695 1.856-.572 3.91.342 5.786.5 1.032 1.2 1.94 2.095 2.713.918.814 2 1.428 3.212 1.84.934.317 1.93.487 2.984.487 1.973 0 3.948-.594 5.433-1.607 1.654-1.136 2.587-2.706 2.636-4.422.035-1.282-.522-2.585-1.58-3.63-1.27-1.272-3.065-2.03-4.815-2.03-1.68 0-3.174.718-4.21 2.026-.717.914-.93 2.12-.564 3.222.394 1.188 1.38 2.097 2.696 2.462.348.105.728.158 1.116.158 1.416 0 2.772-.688 3.368-1.716.43-.735.41-1.577-.055-2.348-.483-.774-1.473-1.263-2.582-1.263-.927 0-1.723.348-2.13.913-.22.324-.437.868-.136 1.633l.188.452.48-.137.13-.032.583-.168-.245-.557c-.052-.132-.042-.225.028-.322.174-.27.705-.47 1.2-.47.313 0 .585.08.752.22.426.35.56.7.433 1.057-.237.625-1.185 1.14-2.1 1.14-.173 0-.34-.026-.5-.05-.813-.176-1.396-.653-1.622-1.333-.225-.7-.066-1.495.456-2.068.614-.68 1.563-1.056 2.665-1.056.898 0 1.784.243 2.496.702 1.36.866 1.91 2.094 1.544 3.454-.5 1.854-2.542 3.374-4.767 3.518-.163.014-.334.014-.495.014-1.995 0-3.893-.772-5.234-2.1-1.078-1.08-1.653-2.426-1.615-3.758.104-3.7 4.135-6.825 8.81-6.825h.09c3.59.035 7.106 1.775 9.1 4.36-1.045 5.29-2.272 9.86-3.626 13.528-2.037 1.348-4.47 2.26-6.974 2.532-.607.066-1.235.102-1.862.102-2.368 0-4.693-.492-6.828-1.36C3.104 118.855.688 82.715 0 70.124l1.047-.01h9.56z"/></g></g></svg>