<svg xmlns="http://www.w3.org/2000/svg" width="374.938" height="132.947" viewBox="0 0 374.938 132.947"><g fill="#8CC640"><path d="M68.775 50.14c0 3.403-.174 5.994-.506 7.796-.52 2.975-1.528 5.283-3.023 6.958-2.438 2.667-5.872 3.996-10.274 3.996-2.74 0-5.227-.578-7.448-1.734-2.447-1.297-4.178-3.076-5.217-5.36-.893-2.093-1.34-4.43-1.34-7.013V24.05h8.984v9.21h18.823v6.5H49.952v14.127c0 1.754.13 3.083.39 3.99.607 2.06 2.19 3.09 4.757 3.09 1.49 0 2.654-.464 3.463-1.355 1.195-1.29 1.795-4.06 1.795-8.313v-6.256h8.418v5.095zM81.396 39.762h-9.063v-6.5h9.063v6.5zm0 27.852h-9.063v-22.57h9.063v22.57zM134.237 67.614h-8.864V46.91c0-2.235-.56-3.99-1.667-5.276-.94-1.158-2.142-1.738-3.593-1.738-1.54 0-2.874.63-3.984 1.866-1.205 1.375-1.805 3.167-1.805 5.402v20.448h-9.046V46.98c0-2.316-.27-3.97-.83-4.957-.816-1.324-2.338-2-4.565-2-3.683 0-5.535 2.238-5.535 6.702v20.89h-9.046V33.26h8.538v3.29c0 1.235.028 1.866.06 1.866 0-.042.03-.084.065-.133 1.34-2.058 2.674-3.536 4.052-4.44 1.544-.985 3.47-1.492 5.778-1.492 2.32 0 4.167.434 5.562 1.264 1.39.837 2.714 2.267 3.955 4.28 1.24-1.808 2.574-3.18 4.003-4.123 1.428-.947 3.18-1.42 5.23-1.42 2.183 0 4.283.563 6.273 1.683 1.982 1.11 3.382 2.556 4.196 4.33.816 1.772 1.22 3.628 1.22 5.557v23.694zM168.782 52.837H145.23c.208 2.825 1.103 5.004 2.692 6.532 1.358 1.286 3.037 1.92 5.007 1.92 1.463 0 2.765-.34 3.905-1.02 1.164-.707 1.907-1.626 2.25-2.78h9.258c-1.025 3.476-2.874 6.175-5.524 8.08-2.65 1.91-5.81 2.883-9.437 2.883-11.438 0-17.153-6.26-17.153-18.733 0-5.29 1.447-9.47 4.34-12.627 2.892-3.152 6.947-4.743 12.172-4.743 10.69 0 16.04 6.836 16.04 20.487zm-9.24-5.724c-.214-2.31-.985-4.147-2.338-5.48-1.354-1.332-2.908-1.998-4.663-1.998-1.71 0-3.19.635-4.432 1.873-1.37 1.332-2.225 3.205-2.565 5.604h13.998zM202.245 67.614h-9.05V46.802c0-2.396-.382-4.11-1.153-5.1-.9-1.16-2.49-1.73-4.76-1.73-2.227 0-3.945.74-5.165 2.244-1.222 1.52-1.834 3.41-1.834 5.678v19.72h-9.053V24.05h9.053v13.72c.684-1.517 1.967-2.744 3.863-3.65 1.862-.915 3.95-1.375 6.21-1.375 3.254 0 5.99.868 8.164 2.58 2.473 1.986 3.726 4.8 3.726 8.464v23.824zM239.558 50.432c0 5.443-1.563 9.813-4.687 13.087-3.133 3.284-7.365 4.934-12.71 4.934-5.444 0-9.737-1.667-12.886-4.99-3.137-3.338-4.72-7.67-4.72-13.032 0-5.41 1.573-9.764 4.686-13.08 3.128-3.324 7.435-5.002 12.92-5.002 5.487 0 9.78 1.705 12.896 5.095 2.987 3.296 4.502 7.62 4.502 12.987zm-9.185.04c0-6.97-2.725-10.45-8.212-10.45-5.526 0-8.296 3.48-8.296 10.45 0 6.945 2.77 10.44 8.297 10.44 5.49 0 8.213-3.495 8.213-10.44zM273.207 67.614h-8.555V64.57c0-1.197 0-1.8-.042-1.8 0 .04-.028.066-.076.066-2.26 3.867-5.73 5.804-10.406 5.804-3.197 0-5.88-1.062-8.018-3.16-2.438-2.32-3.672-5.528-3.672-9.608v-22.61h9.073v21.265c0 4.248 1.912 6.384 5.772 6.384 2.264 0 4.007-.745 5.192-2.2 1.206-1.463 1.808-3.333 1.808-5.606V33.26h8.924v34.354zM307.17 56.65c0 2.45-.597 4.575-1.788 6.387-2.567 3.732-7.03 5.603-13.362 5.603-4.317 0-8.02-.984-11.097-2.976-3.438-2.225-5.162-5.235-5.22-9.015h9.325c0 1.673.733 2.98 2.178 3.933 1.276.806 2.867 1.21 4.737 1.21 1.68 0 3.132-.318 4.345-.988 1.22-.67 1.84-1.54 1.84-2.615 0-1.416-1.82-2.528-5.465-3.35-5.387-1.24-8.804-2.205-10.205-2.9-3.647-1.752-5.468-4.462-5.468-8.117 0-2.146.52-4.108 1.55-5.855 1.016-1.772 2.744-3.17 5.192-4.21 2.455-1.076 5.074-1.592 7.9-1.592 3.855 0 7.09.928 9.71 2.775 2.98 2.052 4.595 4.97 4.805 8.75h-8.955c-.48-3.05-2.48-4.568-6.053-4.568-1.474 0-2.743.33-3.803.966-1.073.652-1.61 1.465-1.61 2.445 0 1.29 1.842 2.336 5.537 3.16 5.37 1.205 8.828 2.178 10.38 2.904 3.692 1.81 5.525 4.493 5.525 8.052zM340.763 52.837h-23.565c.216 2.825 1.096 5.004 2.692 6.532 1.37 1.286 3.04 1.92 5.014 1.92 1.452 0 2.755-.34 3.905-1.02 1.17-.707 1.916-1.626 2.272-2.78h9.237c-1.027 3.476-2.867 6.175-5.522 8.08-2.66 1.91-5.816 2.883-9.447 2.883-11.433 0-17.148-6.26-17.148-18.733 0-5.29 1.45-9.47 4.335-12.627 2.893-3.152 6.946-4.743 12.174-4.743 10.704 0 16.053 6.836 16.053 20.487zm-9.24-5.724c-.23-2.31-1.01-4.147-2.35-5.48-1.357-1.332-2.91-1.998-4.66-1.998-1.715 0-3.18.635-4.422 1.873-1.366 1.332-2.238 3.205-2.58 5.604h14.012z"/><g><path d="M352.363 63.007c0 1.632-.468 2.942-1.41 3.93-.946.994-2.206 1.49-3.827 1.49-1.64 0-2.943-.51-3.886-1.51-.927-.998-1.415-2.3-1.415-3.91 0-1.64.47-2.955 1.415-3.948.94-1.013 2.233-1.503 3.886-1.503 1.645 0 2.942.51 3.886 1.537.897.988 1.35 2.287 1.35 3.913zm-2.767 0c0-2.097-.827-3.135-2.473-3.135-1.66 0-2.5 1.04-2.5 3.135 0 2.095.84 3.15 2.5 3.15 1.646.002 2.473-1.054 2.473-3.15zM362.72 64.078c0 1.37-.492 2.45-1.47 3.26-.903.74-1.99 1.117-3.258 1.117-1.217 0-2.266-.358-3.124-1.088-.924-.813-1.405-1.698-1.405-3.09h2.518c0 .652.22.945.587 1.322.343.33.77.504 1.284.504.57 0 1.063-.202 1.482-.576.465-.438.68-.8.68-1.5v-1.582c-.194.466-.535.822-1.048 1.074-.515.254-1.078.388-1.71.388-1.008 0-1.865-.287-2.57-.89-.825-.67-1.22-1.604-1.22-2.797v-2.4h2.734v1.99c0 1.27.577 1.905 1.723 1.905.63 0 1.13-.167 1.514-.534.384-.354.58-.805.58-1.37v-1.99h2.706v6.258z"/></g><path d="M347.982 15.282c9.915-5.072 20.568-3.677 26.956 3.86-9.488-1.692-22.53-5.508-30.813 1.928C344.698 7.626 333.1 5.373 322.06 2.1c13.24-6.892 21.82 4.672 25.922 13.182z"/><g><path d="M13.518 4.31c2.346 0 4.63.367 6.82 1.074-1.76-3.06-3.672-4.756-5.685-4.756-1.834 0-3.602 1.444-5.25 4.062 1.36-.25 2.746-.38 4.115-.38zM10.608 67.526c0-.22-.014-.418-.014-.64 0-6.648 1.765-9.298 4.827-9.298 3.06 0 4.813 2.65 4.813 9.3v.638h10.592c-.4-7.902-2.6-31.992-3.902-39.573-2.587 2.058-5.908 3.26-9.27 3.26-.16 0-.327-.014-.487-.018-2.394-.08-4.82-.78-6.814-1.96-2.12-1.255-3.613-2.943-4.332-4.87-.693-1.86-.57-3.914.343-5.79.5-1.025 1.2-1.94 2.096-2.713.917-.813 1.998-1.423 3.21-1.837.936-.318 1.933-.482 2.985-.482 1.974 0 3.948.586 5.434 1.604 1.653 1.136 2.586 2.703 2.635 4.42.035 1.285-.52 2.582-1.58 3.628-1.27 1.276-3.064 2.037-4.814 2.037-1.68 0-3.174-.722-4.208-2.026-.72-.914-.933-2.127-.565-3.226.394-1.19 1.38-2.092 2.696-2.46.348-.106.728-.155 1.116-.155 1.415 0 2.77.683 3.366 1.708.43.74.41 1.584-.055 2.347-.48.775-1.47 1.266-2.58 1.266-.927 0-1.723-.35-2.13-.914-.22-.32-.438-.868-.136-1.632l.188-.457.48.144.13.027.583.17-.245.56c-.052.125-.042.223.028.32.174.27.705.47 1.198.47.314 0 .586-.076.753-.22.426-.348.56-.703.433-1.056-.238-.623-1.187-1.136-2.1-1.136-.175 0-.343.02-.503.053-.812.17-1.395.648-1.62 1.33-.226.696-.066 1.498.455 2.063.614.683 1.563 1.057 2.665 1.057.9 0 1.785-.24 2.497-.7 1.36-.87 1.91-2.094 1.544-3.453-.498-1.852-2.54-3.373-4.766-3.516-.163-.017-.334-.017-.495-.017-1.996 0-3.894.772-5.234 2.097C8.748 18.962 8.173 20.3 8.21 21.63c.105 3.707 4.137 6.83 8.81 6.83h.09c3.594-.034 7.108-1.774 9.104-4.358-1.046-5.284-2.273-9.858-3.627-13.527-2.037-1.354-4.47-2.267-6.975-2.538-.606-.06-1.234-.1-1.86-.1-2.37 0-4.694.494-6.83 1.366C3.105 18.78.69 54.923 0 67.515l1.047.012h9.56z"/></g></g><g opacity=".2"><linearGradient id="a" gradientUnits="userSpaceOnUse" x1="54.891" y1="18.453" x2="54.891" y2="63.294" gradientTransform="matrix(1 0 0 -1 -.02 132.042)"><stop offset="0" stop-color="#8CC640" stop-opacity="0"/><stop offset=".906" stop-color="#8CC640" stop-opacity=".906"/><stop offset="1" stop-color="#8CC640"/></linearGradient><path fill="url(#a)" d="M68.775 92.59h-8.418v-6.252c0-4.26-.6-7.026-1.795-8.313-.81-.89-1.972-1.357-3.464-1.357-2.565 0-4.148 1.032-4.756 3.093-.262.91-.39 2.238-.39 3.996v14.122h18.822v6.5H49.952v9.213h-8.984V82.857c0-2.58.447-4.922 1.34-7.015 1.04-2.28 2.77-4.06 5.217-5.35 2.222-1.164 4.707-1.743 7.448-1.743 4.402 0 7.836 1.325 10.274 3.996 1.496 1.674 2.504 3.98 3.022 6.957.33 1.8.505 4.396.505 7.793v5.097z"/><linearGradient id="b" gradientUnits="userSpaceOnUse" x1="76.883" y1="27.666" x2="76.883" y2="62.016" gradientTransform="matrix(1 0 0 -1 -.02 132.042)"><stop offset="0" stop-color="#8CC640" stop-opacity="0"/><stop offset=".906" stop-color="#8CC640" stop-opacity=".906"/><stop offset="1" stop-color="#8CC640"/></linearGradient><path fill="url(#b)" d="M81.396 104.376h-9.063v-6.5h9.063v6.5zm0-11.786h-9.063V70.026h9.063V92.59z"/><linearGradient id="c" gradientUnits="userSpaceOnUse" x1="109.79" y1="26.755" x2="109.79" y2="62.016" gradientTransform="matrix(1 0 0 -1 -.02 132.042)"><stop offset="0" stop-color="#8CC640" stop-opacity="0"/><stop offset=".906" stop-color="#8CC640" stop-opacity=".906"/><stop offset="1" stop-color="#8CC640"/></linearGradient><path fill="url(#c)" d="M134.237 93.716c0 1.936-.403 3.784-1.22 5.56-.814 1.782-2.214 3.222-4.195 4.33-1.99 1.124-4.09 1.682-6.272 1.682-2.05 0-3.805-.47-5.23-1.42-1.43-.944-2.763-2.317-4.004-4.124-1.24 2.015-2.566 3.44-3.955 4.283-1.394.826-3.24 1.26-5.56 1.26-2.31 0-4.234-.504-5.78-1.49-1.377-.9-2.713-2.38-4.052-4.443-.034-.04-.066-.088-.066-.125-.03 0-.06.622-.06 1.858v3.29h-8.537V70.026h9.046v20.882c0 4.473 1.854 6.702 5.536 6.702 2.228 0 3.75-.67 4.565-2 .562-.98.83-2.635.83-4.955v-20.63h9.046v20.448c0 2.232.6 4.023 1.804 5.398 1.11 1.24 2.443 1.87 3.984 1.87 1.45 0 2.65-.58 3.593-1.738 1.108-1.286 1.667-3.043 1.667-5.275v-20.7h8.864v23.69z"/><linearGradient id="d" gradientUnits="userSpaceOnUse" x1="152.526" y1="26.755" x2="152.526" y2="62.858" gradientTransform="matrix(1 0 0 -1 -.02 132.042)"><stop offset="0" stop-color="#8CC640" stop-opacity="0"/><stop offset=".906" stop-color="#8CC640" stop-opacity=".906"/><stop offset="1" stop-color="#8CC640"/></linearGradient><path fill="url(#d)" d="M152.74 105.287c-5.224 0-9.28-1.595-12.17-4.742-2.895-3.15-4.34-7.34-4.34-12.628 0-12.48 5.714-18.732 17.152-18.732 3.626 0 6.785.974 9.436 2.883 2.65 1.908 4.5 4.6 5.524 8.082h-9.26c-.34-1.15-1.083-2.07-2.248-2.783-1.142-.674-2.442-1.014-3.906-1.014-1.97 0-3.648.638-5.007 1.92-1.59 1.522-2.482 3.7-2.69 6.526h23.552c0 13.653-5.35 20.487-16.04 20.487zm-7.197-14.757c.342 2.396 1.197 4.265 2.565 5.596 1.24 1.242 2.72 1.878 4.433 1.878 1.755 0 3.31-.667 4.664-2 1.353-1.332 2.124-3.17 2.337-5.474h-13.997z"/><linearGradient id="e" gradientUnits="userSpaceOnUse" x1="186.758" y1="18.453" x2="186.758" y2="62.016" gradientTransform="matrix(1 0 0 -1 -.02 132.042)"><stop offset="0" stop-color="#8CC640" stop-opacity="0"/><stop offset=".906" stop-color="#8CC640" stop-opacity=".906"/><stop offset="1" stop-color="#8CC640"/></linearGradient><path fill="url(#e)" d="M202.245 93.85c0 3.66-1.253 6.482-3.726 8.46-2.176 1.717-4.91 2.586-8.164 2.586-2.26 0-4.35-.46-6.21-1.373-1.897-.907-3.18-2.142-3.864-3.65v13.718h-9.053V70.027h9.052V89.74c0 2.272.613 4.16 1.834 5.678 1.22 1.51 2.938 2.247 5.164 2.247 2.27 0 3.86-.568 4.76-1.73.772-.995 1.155-2.704 1.155-5.1v-20.81h9.05V93.85z"/><linearGradient id="f" gradientUnits="userSpaceOnUse" x1="222.077" y1="26.755" x2="222.077" y2="62.858" gradientTransform="matrix(1 0 0 -1 -.02 132.042)"><stop offset="0" stop-color="#8CC640" stop-opacity="0"/><stop offset=".906" stop-color="#8CC640" stop-opacity=".906"/><stop offset="1" stop-color="#8CC640"/></linearGradient><path fill="url(#f)" d="M235.056 100.192c-3.115 3.387-7.407 5.095-12.896 5.095-5.485 0-9.792-1.673-12.92-5-3.11-3.317-4.685-7.67-4.685-13.08 0-5.358 1.582-9.694 4.72-13.032 3.146-3.32 7.44-4.99 12.885-4.99 5.345 0 9.577 1.65 12.71 4.935 3.125 3.274 4.688 7.644 4.688 13.09 0 5.364-1.515 9.682-4.502 12.982zM222.16 76.728c-5.526 0-8.296 3.492-8.296 10.44 0 6.963 2.77 10.442 8.297 10.442 5.488 0 8.213-3.48 8.213-10.442 0-6.948-2.724-10.44-8.212-10.44z"/><linearGradient id="g" gradientUnits="userSpaceOnUse" x1="257.844" y1="27.665" x2="257.844" y2="63.046" gradientTransform="matrix(1 0 0 -1 -.02 132.042)"><stop offset="0" stop-color="#8CC640" stop-opacity="0"/><stop offset=".906" stop-color="#8CC640" stop-opacity=".906"/><stop offset="1" stop-color="#8CC640"/></linearGradient><path fill="url(#g)" d="M273.207 104.376h-8.924V84.53c0-2.27-.602-4.14-1.808-5.603-1.187-1.453-2.93-2.2-5.192-2.2-3.86 0-5.77 2.134-5.77 6.39v21.262h-9.074V81.762c0-4.08 1.232-7.285 3.67-9.607 2.14-2.1 4.82-3.16 8.02-3.16 4.677 0 8.145 1.94 10.405 5.807.048 0 .076.022.076.066.043 0 .043-.606.043-1.8v-3.043h8.555v34.35z"/><linearGradient id="h" gradientUnits="userSpaceOnUse" x1="291.457" y1="26.574" x2="291.457" y2="63.047" gradientTransform="matrix(1 0 0 -1 -.02 132.042)"><stop offset="0" stop-color="#8CC640" stop-opacity="0"/><stop offset=".906" stop-color="#8CC640" stop-opacity=".906"/><stop offset="1" stop-color="#8CC640"/></linearGradient><path fill="url(#h)" d="M301.646 89.042c-1.552.723-5.01 1.695-10.38 2.898-3.695.826-5.538 1.877-5.538 3.162 0 .978.538 1.79 1.61 2.44 1.06.642 2.33.97 3.803.97 3.57 0 5.574-1.516 6.054-4.566h8.955c-.21 3.78-1.827 6.7-4.806 8.753-2.62 1.846-5.855 2.77-9.71 2.77-2.826 0-5.445-.515-7.9-1.586-2.448-1.045-4.178-2.447-5.192-4.215-1.028-1.752-1.55-3.715-1.55-5.853 0-3.65 1.82-6.37 5.468-8.127 1.4-.688 4.818-1.652 10.205-2.896 3.646-.822 5.465-1.932 5.465-3.345 0-1.08-.62-1.95-1.84-2.62-1.213-.665-2.665-.988-4.345-.988-1.87 0-3.46.41-4.737 1.214-1.443.95-2.178 2.256-2.178 3.932h-9.325c.058-3.778 1.78-6.788 5.22-9.014 3.076-1.992 6.778-2.98 11.097-2.98 6.333 0 10.795 1.874 13.362 5.608 1.19 1.806 1.787 3.938 1.787 6.383 0 3.566-1.834 6.248-5.524 8.057z"/><linearGradient id="i" gradientUnits="userSpaceOnUse" x1="324.503" y1="26.755" x2="324.503" y2="62.858" gradientTransform="matrix(1 0 0 -1 -.02 132.042)"><stop offset="0" stop-color="#8CC640" stop-opacity="0"/><stop offset=".906" stop-color="#8CC640" stop-opacity=".906"/><stop offset="1" stop-color="#8CC640"/></linearGradient><path fill="url(#i)" d="M324.71 105.287c-5.227 0-9.28-1.595-12.173-4.742-2.886-3.15-4.335-7.34-4.335-12.628 0-12.48 5.717-18.732 17.15-18.732 3.63 0 6.787.974 9.446 2.883 2.653 1.908 4.492 4.6 5.52 8.082h-9.236c-.356-1.15-1.103-2.07-2.273-2.783-1.15-.674-2.454-1.014-3.906-1.014-1.973 0-3.643.638-5.014 1.92-1.6 1.522-2.478 3.7-2.692 6.526h23.565c0 13.653-5.35 20.487-16.052 20.487zm-7.2-14.757c.342 2.396 1.214 4.265 2.58 5.596 1.242 1.242 2.708 1.878 4.423 1.878 1.75 0 3.303-.667 4.66-2 1.34-1.332 2.117-3.17 2.35-5.474H317.51z"/><g><linearGradient id="j" gradientUnits="userSpaceOnUse" x1="347.113" y1="51.965" x2="347.113" y2="62.828" gradientTransform="matrix(1 0 0 -1 -.02 132.042)"><stop offset="0" stop-color="#8CC640" stop-opacity="0"/><stop offset=".906" stop-color="#8CC640" stop-opacity=".906"/><stop offset="1" stop-color="#8CC640"/></linearGradient><path fill="url(#j)" d="M351.01 78.548c-.942 1.024-2.24 1.53-3.887 1.53-1.65 0-2.942-.49-3.885-1.5-.944-.996-1.415-2.31-1.415-3.948 0-1.61.488-2.912 1.415-3.908.94-1.005 2.245-1.507 3.885-1.507 1.622 0 2.882.488 3.828 1.485.943.99 1.41 2.298 1.41 3.93.003 1.625-.45 2.926-1.35 3.918zm-3.885-7.067c-1.66 0-2.502 1.055-2.502 3.15 0 2.097.842 3.134 2.502 3.134 1.645 0 2.472-1.037 2.472-3.135 0-2.095-.828-3.15-2.472-3.15z"/><linearGradient id="k" gradientUnits="userSpaceOnUse" x1="358.112" y1="52.223" x2="358.112" y2="62.858" gradientTransform="matrix(1 0 0 -1 -.02 132.042)"><stop offset="0" stop-color="#8CC640" stop-opacity="0"/><stop offset=".906" stop-color="#8CC640" stop-opacity=".906"/><stop offset="1" stop-color="#8CC640"/></linearGradient><path fill="url(#k)" d="M362.72 79.82h-2.707v-1.994c0-.562-.195-1.017-.58-1.37-.382-.366-.882-.53-1.512-.53-1.145 0-1.722.632-1.722 1.9v1.993h-2.735v-2.405c0-1.19.396-2.127 1.222-2.798.704-.6 1.563-.886 2.57-.886.63 0 1.194.14 1.71.388.512.25.853.604 1.048 1.074v-1.584c0-.697-.216-1.06-.68-1.502-.422-.37-.913-.572-1.482-.572-.515 0-.94.17-1.283.51-.367.373-.586.666-.586 1.318h-2.517c0-1.395.48-2.28 1.405-3.094.858-.727 1.907-1.084 3.124-1.084 1.267 0 2.354.38 3.26 1.12.976.806 1.468 1.886 1.468 3.257v6.26z"/></g><g><linearGradient id="l" gradientUnits="userSpaceOnUse" x1="9.422" y1="-.905" x2="9.422" y2="-.905" gradientTransform="matrix(1 0 0 -1 -.02 132.042)"><stop offset="0" stop-color="#8CC640" stop-opacity="0"/><stop offset=".906" stop-color="#8CC640" stop-opacity=".906"/><stop offset="1" stop-color="#8CC640"/></linearGradient><linearGradient id="m" gradientUnits="userSpaceOnUse" x1="15.432" y1="2.345" x2="15.432" y2="61.93" gradientTransform="matrix(1 0 0 -1 -.02 132.042)"><stop offset="0" stop-color="#8CC640" stop-opacity="0"/><stop offset=".906" stop-color="#8CC640" stop-opacity=".906"/><stop offset="1" stop-color="#8CC640"/></linearGradient><path fill="url(#m)" d="M10.608 70.112c0 .215-.014.414-.014.643 0 6.646 1.765 9.296 4.827 9.296 3.06 0 4.813-2.648 4.813-9.295v-.643h10.592c-.4 7.902-2.6 31.988-3.902 39.572-2.587-2.062-5.908-3.26-9.27-3.26-.16 0-.327.01-.487.012-2.394.084-4.82.78-6.814 1.965-2.12 1.257-3.613 2.94-4.332 4.872-.693 1.855-.57 3.91.343 5.785.5 1.032 1.2 1.94 2.096 2.713.917.813 1.998 1.428 3.21 1.84.936.316 1.933.486 2.985.486 1.974 0 3.948-.594 5.434-1.606 1.653-1.136 2.586-2.706 2.635-4.423.035-1.28-.52-2.584-1.58-3.63-1.27-1.27-3.064-2.028-4.814-2.028-1.68 0-3.174.716-4.208 2.024-.72.914-.933 2.12-.565 3.222.394 1.188 1.38 2.097 2.696 2.462.348.105.728.158 1.116.158 1.415 0 2.77-.688 3.366-1.717.43-.735.41-1.577-.055-2.35-.48-.772-1.47-1.262-2.58-1.262-.927 0-1.723.35-2.13.913-.22.325-.438.87-.136 1.635l.188.452.48-.137.13-.033.583-.168-.245-.56c-.052-.13-.042-.224.028-.32.174-.272.705-.473 1.198-.473.314 0 .586.08.753.22.426.35.56.702.433 1.06-.238.624-1.187 1.14-2.1 1.14-.175 0-.343-.026-.503-.052-.812-.175-1.395-.652-1.62-1.332-.226-.7-.066-1.495.455-2.068.614-.68 1.563-1.056 2.665-1.056.9 0 1.785.242 2.497.7 1.36.866 1.91 2.095 1.544 3.455-.498 1.854-2.54 3.374-4.766 3.518-.163.015-.334.015-.495.015-1.996 0-3.894-.772-5.234-2.1-1.078-1.08-1.653-2.427-1.615-3.76.105-3.698 4.137-6.824 8.81-6.824h.09c3.594.035 7.108 1.775 9.104 4.36-1.046 5.29-2.273 9.858-3.627 13.528-2.037 1.348-4.47 2.26-6.975 2.53-.606.067-1.234.104-1.86.104-2.37 0-4.694-.492-6.83-1.36C3.105 118.854.69 82.716 0 70.124l1.047-.012h9.56z"/></g></g><g fill="#8CC640"><path d="M94.91 94.056v-.907l1.158-1.127c2.79-2.654 4.05-4.065 4.066-5.712 0-1.107-.538-2.132-2.167-2.132-.99 0-1.814.504-2.318.924l-.47-1.042c.755-.64 1.83-1.108 3.09-1.108 2.352 0 3.343 1.612 3.343 3.175 0 2.017-1.46 3.646-3.763 5.863l-.874.807v.033h4.906v1.227H94.91zM110.887 84.38h-4.167l-.42 2.805c.252-.033.487-.067.89-.067.84 0 1.68.185 2.353.588.857.487 1.563 1.428 1.563 2.806 0 2.134-1.697 3.73-4.065 3.73-1.192 0-2.2-.337-2.72-.673l.37-1.126c.453.27 1.343.604 2.334.604 1.395 0 2.587-.907 2.587-2.37-.016-1.41-.957-2.418-3.14-2.418-.623 0-1.11.067-1.513.117l.706-5.24h5.225v1.242zM120.5 94.056V89.25l-3.58-6.518h1.664l1.596 3.125c.437.856.773 1.546 1.125 2.335h.034c.318-.74.705-1.48 1.142-2.335l1.63-3.125h1.662l-3.796 6.502v4.82H120.5zM127.406 90.26c.033 1.998 1.31 2.82 2.79 2.82 1.058 0 1.696-.184 2.25-.42l.252 1.06c-.52.235-1.412.504-2.705.504-2.503 0-4-1.646-4-4.1 0-2.452 1.446-4.385 3.815-4.385 2.654 0 3.36 2.335 3.36 3.83 0 .302-.034.537-.05.688h-5.712zm4.334-1.06c.017-.94-.386-2.402-2.05-2.402-1.494 0-2.15 1.378-2.267 2.402h4.317zM140.344 94.056l-.118-1.024h-.05c-.454.638-1.328 1.21-2.487 1.21-1.647 0-2.487-1.16-2.487-2.336 0-1.966 1.747-3.04 4.89-3.024v-.168c0-.672-.186-1.88-1.85-1.88-.755 0-1.545.233-2.116.603l-.336-.975c.673-.437 1.647-.723 2.672-.723 2.486 0 3.09 1.696 3.09 3.326v3.04c0 .706.035 1.395.135 1.95h-1.343zm-.218-4.15c-1.613-.034-3.444.252-3.444 1.83 0 .96.638 1.412 1.395 1.412 1.058 0 1.73-.672 1.965-1.36.05-.15.084-.32.084-.47v-1.412zM144.78 88.46c0-.956-.016-1.78-.066-2.535h1.293l.05 1.596h.068c.37-1.09 1.26-1.78 2.25-1.78.17 0 .287.018.42.05v1.396c-.15-.033-.302-.05-.503-.05-1.042 0-1.78.79-1.982 1.897-.034.202-.067.438-.067.69v4.333h-1.46V88.46zM150.914 92.544c.437.285 1.21.588 1.95.588 1.074 0 1.578-.538 1.578-1.21 0-.705-.42-1.092-1.512-1.495-1.462-.52-2.15-1.327-2.15-2.302 0-1.31 1.058-2.386 2.805-2.386.823 0 1.546.234 2 .504l-.37 1.075c-.32-.203-.907-.472-1.663-.472-.874 0-1.36.504-1.36 1.108 0 .672.486.975 1.544 1.378 1.41.537 2.134 1.243 2.134 2.453 0 1.428-1.11 2.436-3.04 2.436-.89 0-1.714-.22-2.286-.555l.37-1.124zM170.37 89.923c0 3.007-2.082 4.317-4.048 4.317-2.2 0-3.898-1.612-3.898-4.183 0-2.722 1.78-4.318 4.032-4.318 2.336 0 3.915 1.697 3.915 4.183zm-6.45.084c0 1.78 1.024 3.125 2.47 3.125 1.41 0 2.47-1.327 2.47-3.158 0-1.378-.69-3.125-2.437-3.125s-2.503 1.61-2.503 3.157zM173.23 94.056V87.05h-1.143v-1.125h1.142v-.387c0-1.143.25-2.184.94-2.84.554-.537 1.293-.755 1.982-.755.52 0 .975.117 1.26.234l-.2 1.143c-.22-.1-.522-.185-.942-.185-1.26 0-1.58 1.108-1.58 2.352v.438h1.966v1.125h-1.965v7.006h-1.46zM183.277 82.884c.89-.135 1.95-.235 3.108-.235 2.1 0 3.596.486 4.586 1.41 1.01.924 1.598 2.234 1.598 4.065 0 1.85-.57 3.36-1.63 4.402-1.06 1.058-2.806 1.63-5.006 1.63-1.042 0-1.915-.05-2.654-.135V82.884zm1.462 10.012c.37.067.906.084 1.478.084 3.125 0 4.822-1.747 4.822-4.805.016-2.67-1.496-4.368-4.587-4.368-.756 0-1.327.067-1.714.15v8.94zM196.905 83.64c.017.504-.354.907-.94.907-.522 0-.892-.403-.892-.907 0-.52.387-.924.925-.924.553 0 .907.403.907.924zm-1.647 10.416v-8.13h1.48v8.13h-1.48zM207.035 85.925c-.033.588-.067 1.243-.067 2.234v4.72c0 1.864-.37 3.007-1.16 3.713-.788.74-1.93.974-2.956.974-.975 0-2.05-.234-2.704-.672l.37-1.125c.537.336 1.377.638 2.385.638 1.512 0 2.62-.79 2.62-2.84v-.906h-.032c-.453.756-1.327 1.36-2.587 1.36-2.016 0-3.46-1.713-3.46-3.964 0-2.756 1.797-4.318 3.66-4.318 1.413 0 2.186.74 2.538 1.412h.034l.068-1.227h1.293zm-1.53 3.208c0-.252-.015-.47-.083-.672-.268-.855-.99-1.562-2.066-1.562-1.41 0-2.418 1.193-2.418 3.075 0 1.596.806 2.923 2.402 2.923.906 0 1.73-.57 2.05-1.512.083-.252.116-.538.116-.79v-1.46zM211.81 83.64c.017.504-.354.907-.94.907-.522 0-.892-.403-.892-.907 0-.52.387-.924.925-.924.553 0 .906.403.906.924zm-1.648 10.416v-8.13h1.48v8.13h-1.48zM216.715 83.59v2.335h2.117v1.125h-2.117v4.385c0 1.01.286 1.58 1.11 1.58.386 0 .67-.05.855-.102l.067 1.11c-.285.116-.74.2-1.31.2-.69 0-1.244-.22-1.597-.62-.42-.44-.57-1.16-.57-2.118V87.05h-1.262v-1.125h1.26v-1.95l1.447-.386zM225.84 94.056l-.12-1.024h-.05c-.453.638-1.326 1.21-2.486 1.21-1.646 0-2.486-1.16-2.486-2.336 0-1.966 1.748-3.04 4.89-3.024v-.168c0-.672-.185-1.88-1.85-1.88-.755 0-1.544.233-2.115.603l-.337-.975c.673-.437 1.646-.723 2.672-.723 2.486 0 3.092 1.696 3.092 3.326v3.04c0 .706.033 1.395.134 1.95h-1.345zm-.22-4.15c-1.612-.034-3.444.252-3.444 1.83 0 .96.64 1.412 1.395 1.412 1.06 0 1.73-.672 1.967-1.36.05-.15.084-.32.084-.47v-1.412zM230.277 82.128h1.48v11.928h-1.48V82.128zM249.077 89.083c-.084-1.58-.185-3.478-.168-4.89h-.052c-.386 1.328-.856 2.74-1.428 4.302l-2 5.493h-1.108l-1.83-5.393c-.538-1.596-.992-3.058-1.312-4.4h-.033c-.033 1.41-.117 3.31-.22 5.005l-.3 4.855h-1.396l.79-11.323h1.865l1.932 5.477c.47 1.394.857 2.637 1.143 3.812h.05c.286-1.142.69-2.385 1.193-3.813l2.016-5.478h1.864l.706 11.323h-1.43l-.283-4.972zM254.758 90.26c.033 1.998 1.31 2.82 2.79 2.82 1.057 0 1.695-.184 2.25-.42l.252 1.06c-.52.235-1.41.504-2.705.504-2.503 0-3.998-1.646-3.998-4.1 0-2.452 1.444-4.385 3.813-4.385 2.654 0 3.36 2.335 3.36 3.83 0 .302-.034.537-.05.688h-5.712zm4.334-1.06c.017-.94-.386-2.402-2.05-2.402-1.495 0-2.15 1.378-2.268 2.402h4.318zM270.216 82.128v9.828c0 .722.017 1.545.067 2.1h-1.328l-.066-1.41h-.035c-.453.906-1.444 1.595-2.77 1.595-1.967 0-3.48-1.662-3.48-4.132-.016-2.704 1.664-4.368 3.647-4.368 1.243 0 2.083.59 2.452 1.243h.034V82.13h1.478zm-1.478 7.106c0-.186-.017-.438-.067-.622-.218-.94-1.023-1.714-2.133-1.714-1.528 0-2.436 1.345-2.436 3.142 0 1.646.808 3.008 2.403 3.008.99 0 1.898-.655 2.167-1.765.05-.2.067-.402.067-.638v-1.41zM275.157 83.64c.017.504-.354.907-.94.907-.522 0-.89-.403-.89-.907 0-.52.385-.924.923-.924.554 0 .907.403.907.924zm-1.646 10.416v-8.13h1.48v8.13h-1.48zM282.784 94.056l-.117-1.024h-.05c-.454.638-1.328 1.21-2.487 1.21-1.646 0-2.486-1.16-2.486-2.336 0-1.966 1.747-3.04 4.89-3.024v-.168c0-.672-.186-1.88-1.85-1.88-.755 0-1.545.233-2.116.603l-.336-.975c.672-.437 1.646-.723 2.672-.723 2.486 0 3.09 1.696 3.09 3.326v3.04c0 .706.034 1.395.136 1.95h-1.346zm-.217-4.15c-1.613-.034-3.444.252-3.444 1.83 0 .96.64 1.412 1.395 1.412 1.06 0 1.73-.672 1.966-1.36.05-.15.084-.32.084-.47v-1.412z"/></g></svg>