<svg id="Layer_1" data-name="Layer 1" xmlns="http://www.w3.org/2000/svg" xmlns:xlink="http://www.w3.org/1999/xlink" viewBox="0 0 478.93 122.95"><defs><style>.cls-1{fill:#8dc63f;}.cls-2{fill:url(#linear-gradient);}.cls-3{fill:url(#linear-gradient-2);}.cls-4{fill:url(#linear-gradient-3);}.cls-5{fill:url(#linear-gradient-4);}.cls-6{fill:url(#linear-gradient-5);}.cls-7{fill:url(#linear-gradient-6);}.cls-8{fill:url(#linear-gradient-7);}.cls-9{fill:url(#linear-gradient-8);}.cls-10{fill:url(#linear-gradient-9);}.cls-11{fill:url(#linear-gradient-10);}.cls-12{fill:url(#linear-gradient-11);}.cls-13{fill:url(#linear-gradient-12);}.cls-14{fill:url(#linear-gradient-13);}.cls-15{fill:url(#linear-gradient-14);}.cls-16{fill:url(#linear-gradient-15);}.cls-17{fill:url(#linear-gradient-16);}.cls-18{isolation:isolate;}</style><linearGradient id="linear-gradient" x1="457.54" y1="36.95" x2="457.54" y2="51.28" gradientTransform="matrix(1, 0, 0, -1, 0, 139.89)" gradientUnits="userSpaceOnUse"><stop offset="0" stop-color="#8ec640" stop-opacity="0"/><stop offset="1" stop-color="#8ec640" stop-opacity="0.25"/></linearGradient><linearGradient id="linear-gradient-2" x1="472.02" y1="37.29" x2="472.02" y2="51.3" xlink:href="#linear-gradient"/><linearGradient id="linear-gradient-3" x1="427.71" y1="18.46" x2="427.71" y2="51.3" xlink:href="#linear-gradient"/><linearGradient id="linear-gradient-4" x1="20.31" y1="18.46" x2="20.31" y2="50.09" xlink:href="#linear-gradient"/><linearGradient id="linear-gradient-5" x1="72.33" y1="18.46" x2="72.33" y2="51.89" xlink:href="#linear-gradient"/><linearGradient id="linear-gradient-6" x1="101.31" y1="20.46" x2="101.31" y2="50.2" xlink:href="#linear-gradient"/><linearGradient id="linear-gradient-7" x1="144.99" y1="18.46" x2="144.99" y2="50.2" xlink:href="#linear-gradient"/><linearGradient id="linear-gradient-8" x1="170.72" y1="18.44" x2="170.72" y2="50.2" xlink:href="#linear-gradient"/><linearGradient id="linear-gradient-9" x1="118.69" y1="18.46" x2="118.69" y2="50.2" xlink:href="#linear-gradient"/><linearGradient id="linear-gradient-10" x1="201.04" y1="18.46" x2="201.04" y2="51.31" xlink:href="#linear-gradient"/><linearGradient id="linear-gradient-11" x1="260.39" y1="18.46" x2="260.39" y2="50.2" xlink:href="#linear-gradient"/><linearGradient id="linear-gradient-12" x1="232.32" y1="18.46" x2="232.32" y2="50.21" xlink:href="#linear-gradient"/><linearGradient id="linear-gradient-13" x1="292.71" y1="18.46" x2="292.71" y2="51.3" xlink:href="#linear-gradient"/><linearGradient id="linear-gradient-14" x1="339.86" y1="18.46" x2="339.86" y2="51.57" xlink:href="#linear-gradient"/><linearGradient id="linear-gradient-15" x1="397.63" y1="18.46" x2="397.63" y2="18.68" xlink:href="#linear-gradient"/><linearGradient id="linear-gradient-16" x1="384.18" y1="18.45" x2="384.18" y2="51.55" xlink:href="#linear-gradient"/></defs><title>logo-en</title><path class="cls-1" d="M90.65,62.12A59.48,59.48,0,0,1,90,72.4a18.16,18.16,0,0,1-4,9.18q-4.82,5.26-13.54,5.27a20.93,20.93,0,0,1-9.82-2.3,14.84,14.84,0,0,1-6.87-7.05A23.35,23.35,0,0,1,54,68.24V27.73H65.84V39.88H90.65v8.57H65.84V67.06a20.27,20.27,0,0,0,.52,5.27c.8,2.71,2.88,4.07,6.27,4.07a5.85,5.85,0,0,0,4.57-1.78q2.36-2.55,2.37-11V55.41H90.65Z"/><path class="cls-1" d="M107.29,48.45H95.35V39.88h11.93Zm0,36.71H95.35V55.41h11.93Z"/><path class="cls-1" d="M177,85.16H165.26V57.87a10.25,10.25,0,0,0-2.2-7,5.85,5.85,0,0,0-4.73-2.29A6.84,6.84,0,0,0,153.08,51a10.38,10.38,0,0,0-2.38,7.12v27H138.77V58c0-3.06-.36-5.24-1.1-6.54-1.06-1.75-3.08-2.64-6-2.64q-7.29,0-7.29,8.84v27.5H112.44V39.88H123.7v4.33a14.55,14.55,0,0,0,.08,2.45.31.31,0,0,1,.09-.16,19.47,19.47,0,0,1,5.33-5.86,13.93,13.93,0,0,1,7.62-2,14.2,14.2,0,0,1,7.33,1.66,16.4,16.4,0,0,1,5.21,5.7,19.74,19.74,0,0,1,5.29-5.43,12.2,12.2,0,0,1,6.9-1.87,16.67,16.67,0,0,1,8.26,2.21,12.52,12.52,0,0,1,5.54,5.71,17.43,17.43,0,0,1,1.65,7.3Z"/><path class="cls-1" d="M222.49,65.69H191.43q.41,5.57,3.55,8.6a9.26,9.26,0,0,0,6.6,2.53,9.9,9.9,0,0,0,5.16-1.35,6.25,6.25,0,0,0,3-3.66h12.2a19.46,19.46,0,0,1-7.28,10.66,20.8,20.8,0,0,1-12.44,3.79q-22.63,0-22.62-24.68c0-7,1.91-12.5,5.72-16.66s9.16-6.24,16-6.24Q222.48,38.68,222.49,65.69Zm-12.18-7.55a11.27,11.27,0,0,0-3.09-7.23,8.49,8.49,0,0,0-6.14-2.63,8,8,0,0,0-5.84,2.47,12.35,12.35,0,0,0-3.39,7.39Z"/><path class="cls-1" d="M266.59,85.16H254.66V57.72c0-3.16-.5-5.42-1.52-6.72-1.19-1.53-3.29-2.29-6.27-2.29a8.27,8.27,0,0,0-6.82,3,11.53,11.53,0,0,0-2.41,7.49v26H225.71V27.73h11.94V45.82A10,10,0,0,1,242.73,41a18.47,18.47,0,0,1,8.2-1.81,16.87,16.87,0,0,1,10.75,3.4q4.9,3.9,4.9,11.16Z"/><path class="cls-1" d="M315.78,62.51q0,10.77-6.18,17.26t-16.75,6.49q-10.78,0-17-6.57c-4.14-4.39-6.23-10.11-6.23-17.18s2.07-12.87,6.18-17.25,9.79-6.58,17-6.58,12.89,2.24,17,6.7S315.78,55.44,315.78,62.51Zm-12.11,0q0-13.76-10.83-13.77T281.91,62.56q0,13.74,10.93,13.76T303.67,62.56Z"/><path class="cls-1" d="M360.14,85.16H348.87v-4a14.23,14.23,0,0,0-.06-2.37c0,.06,0,.08-.1.08q-4.48,7.65-13.72,7.65a14.44,14.44,0,0,1-10.57-4.16q-4.82-4.57-4.84-12.66V39.88h12v28q0,8.41,7.62,8.42A8.31,8.31,0,0,0,346,73.4a11.14,11.14,0,0,0,2.33-7.4V39.88h11.77Z"/><path class="cls-1" d="M404.91,70.7a14.86,14.86,0,0,1-2.36,8.42q-5.07,7.38-17.61,7.39a26.4,26.4,0,0,1-14.63-3.92q-6.79-4.41-6.87-11.89h12.3a5.86,5.86,0,0,0,2.87,5.18,11.44,11.44,0,0,0,6.25,1.61,11.67,11.67,0,0,0,5.72-1.31A3.91,3.91,0,0,0,393,72.74q0-2.8-7.2-4.41c-7.11-1.65-11.61-2.92-13.46-3.83q-7.23-3.5-7.23-10.7a15.08,15.08,0,0,1,2-7.72A13.79,13.79,0,0,1,374,40.52a25.72,25.72,0,0,1,10.42-2.09,21.65,21.65,0,0,1,12.79,3.65,14.22,14.22,0,0,1,6.34,11.55h-11.8c-.64-4-3.28-6-8-6a9.52,9.52,0,0,0-5,1.28,3.73,3.73,0,0,0-2.13,3.22q0,2.55,7.3,4.16c7.07,1.58,11.63,2.87,13.67,3.82C402.49,62.47,404.91,66,404.91,70.7Z"/><path class="cls-1" d="M449.19,65.69H418.13q.41,5.57,3.55,8.6a9.27,9.27,0,0,0,6.62,2.53,10,10,0,0,0,5.16-1.35,6.34,6.34,0,0,0,3-3.66H448.6a19.46,19.46,0,0,1-7.28,10.66,20.86,20.86,0,0,1-12.45,3.79q-22.62,0-22.61-24.68c0-7,1.92-12.5,5.72-16.66s9.16-6.24,16-6.24Q449.2,38.68,449.19,65.69ZM437,58.14a11.36,11.36,0,0,0-3.1-7.23,8.51,8.51,0,0,0-6.14-2.63,7.94,7.94,0,0,0-5.83,2.47,12.36,12.36,0,0,0-3.4,7.39Z"/><path class="cls-1" d="M464.48,79.08a7.23,7.23,0,0,1-1.86,5.19,7.53,7.53,0,0,1-10.16,0,8.1,8.1,0,0,1,0-10.36,7.57,7.57,0,0,1,10.24,0A7.39,7.39,0,0,1,464.48,79.08Zm-3.64,0c0-2.76-1.1-4.13-3.27-4.13s-3.29,1.38-3.29,4.13,1.1,4.14,3.29,4.14,3.27-1.37,3.27-4.13Z"/><path class="cls-1" d="M478.13,80.5a5.27,5.27,0,0,1-1.94,4.29,6.57,6.57,0,0,1-4.29,1.46,6.24,6.24,0,0,1-4.13-1.42,5,5,0,0,1-1.87-4.09h3.34a2.1,2.1,0,0,0,.77,1.75,2.32,2.32,0,0,0,1.69.67,2.85,2.85,0,0,0,2-.76,2.39,2.39,0,0,0,.89-2V78.34a2.7,2.7,0,0,1-1.38,1.43,5.4,5.4,0,0,1-5.63-.66,4.49,4.49,0,0,1-1.63-3.69V72.24h3.61v2.64c0,1.67.76,2.51,2.28,2.51a2.74,2.74,0,0,0,2-.71,2.33,2.33,0,0,0,.76-1.8V72.24h3.57Z"/><path class="cls-1" d="M449.06,17.79c11-5.63,22.79-4.07,29.87,4.28-10.52-1.88-25-6.1-34.14,2.13.64-14.89-12.22-17.38-24.45-21C435-4.45,444.52,8.36,449.06,17.79Z"/><path class="cls-1" d="M17.51,4.86h0a29,29,0,0,1,9,1.42C24.18,2.22,21.66,0,19,0c-2.43,0-4.76,1.89-6.93,5.35A30.31,30.31,0,0,1,17.51,4.86Z"/><path class="cls-1" d="M14,85v-.83c0-8.78,2.32-12.26,6.35-12.26S26.7,75.4,26.7,84.17V85h14C40.17,74.59,37,46,35.26,36A19.79,19.79,0,0,1,23,40.31h-.65a19.15,19.15,0,0,1-9-2.59A12.85,12.85,0,0,1,7.64,31.3a9.61,9.61,0,0,1,.46-7.63,11.21,11.21,0,0,1,2.75-3.57,12.42,12.42,0,0,1,4.23-2.42A12.2,12.2,0,0,1,19,17a13,13,0,0,1,7.16,2.11A7.32,7.32,0,0,1,29.65,25a6.59,6.59,0,0,1-2.08,4.79,9.18,9.18,0,0,1-6.35,2.67,6.92,6.92,0,0,1-5.54-2.67,4.52,4.52,0,0,1-.75-4.25,5.4,5.4,0,0,1,5-3.45,5.18,5.18,0,0,1,4.44,2.25,2.9,2.9,0,0,1-.07,3.09,3.92,3.92,0,0,1-3.4,1.66,3.4,3.4,0,0,1-2.81-1.19,2.18,2.18,0,0,1-.18-2.15l.24-.61.65.19H19l.77.23-.31.72a.4.4,0,0,0,0,.43,2.05,2.05,0,0,0,1.58.62A1.57,1.57,0,0,0,22,27c.55-.45.74-.93.56-1.4a3,3,0,0,0-2.77-1.49,3.27,3.27,0,0,0-.66.06A2.71,2.71,0,0,0,17,26a2.75,2.75,0,0,0,.6,2.72,4.62,4.62,0,0,0,3.52,1.4,6.19,6.19,0,0,0,3.28-.93,4,4,0,0,0,2-4.55C25.74,22.19,23,20.2,20.12,20h-.67a9.75,9.75,0,0,0-6.88,2.77,6.77,6.77,0,0,0-2.13,5c.14,4.87,5.45,9,11.61,9h.12a15.7,15.7,0,0,0,12-5.75A119.73,119.73,0,0,0,29.46,13.1a20.81,20.81,0,0,0-9.18-3.33,22.42,22.42,0,0,0-2.47-.13,24,24,0,0,0-9,1.79C3.78,23.93.89,68.43,0,85Z"/><path class="cls-2" d="M462.7,100.92a7.57,7.57,0,0,1-10.24,0,8.1,8.1,0,0,1,0-10.36,7.53,7.53,0,0,1,10.16,0,7.23,7.23,0,0,1,1.86,5.19A7.39,7.39,0,0,1,462.7,100.92Zm-5.13-9.31q-3.29,0-3.29,4.14c0,2.76,1.1,4.13,3.29,4.13s3.27-1.38,3.27-4.13S459.74,91.61,457.57,91.61Z"/><path class="cls-3" d="M478.13,102.6h-3.57V100a2.33,2.33,0,0,0-.76-1.8,2.74,2.74,0,0,0-2-.71c-1.52,0-2.28.84-2.28,2.51v2.64h-3.61V99.43a4.49,4.49,0,0,1,1.63-3.69,5.4,5.4,0,0,1,5.63-.66,2.7,2.7,0,0,1,1.38,1.43v-2.1a2.39,2.39,0,0,0-.89-2,2.85,2.85,0,0,0-2-.76,2.32,2.32,0,0,0-1.69.67,2.1,2.1,0,0,0-.77,1.75h-3.34A5,5,0,0,1,467.79,90a6.24,6.24,0,0,1,4.13-1.42A6.57,6.57,0,0,1,476.2,90a5.27,5.27,0,0,1,1.94,4.29Z"/><path class="cls-4" d="M420,121.43a14.56,14.56,0,0,1-1.44-4.72H437a13.14,13.14,0,0,1-1.3,4.72h12a46,46,0,0,0,1.46-12.27h-31q.41-5.57,3.55-8.6A9.27,9.27,0,0,1,428.29,98a10,10,0,0,1,5.16,1.35,6.34,6.34,0,0,1,3,3.66H448.6a19.46,19.46,0,0,0-7.28-10.66,20.86,20.86,0,0,0-12.45-3.79q-22.62,0-22.61,24.68a29.6,29.6,0,0,0,1.08,8.16Z"/><path class="cls-5" d="M37.54,121.43c1.39-11.69,2.75-25.16,3.08-31.62h-14v.83c0,8.78-2.32,12.26-6.35,12.26S14,99.41,14,90.63V89.8H0c.38,7,1.12,19.1,2.22,31.61Z"/><path class="cls-6" d="M65.84,121.43V107.78a20.27,20.27,0,0,1,.52-5.27c.8-2.71,2.88-4.07,6.27-4.07a5.85,5.85,0,0,1,4.57,1.78q2.36,2.55,2.37,11v8.25H90.65v-6.71A59.48,59.48,0,0,0,90,102.44a18.16,18.16,0,0,0-4-9.18Q81.18,88,72.46,88a20.93,20.93,0,0,0-9.82,2.3,14.84,14.84,0,0,0-6.87,7.05A23.35,23.35,0,0,0,54,106.61v14.82Z"/><rect class="cls-7" x="95.35" y="89.69" width="11.93" height="29.74"/><path class="cls-8" d="M151.6,121.43a11.89,11.89,0,0,1-.9-4.79v-27H138.77v27.19a21.79,21.79,0,0,1-.39,4.55Z"/><path class="cls-9" d="M176.93,121.43V89.69H165.26V117a12.44,12.44,0,0,1-.74,4.45Z"/><path class="cls-10" d="M124.94,121.43a14,14,0,0,1-.57-4.21V89.69H112.44v31.74Z"/><path class="cls-11" d="M193.29,121.43a14.6,14.6,0,0,1-1.44-4.72h18.46a13.09,13.09,0,0,1-1.29,4.72h12a46,46,0,0,0,1.46-12.27H191.43q.41-5.57,3.55-8.6a9.26,9.26,0,0,1,6.6-2.53,9.9,9.9,0,0,1,5.16,1.35,6.25,6.25,0,0,1,3,3.66h12.2a19.46,19.46,0,0,0-7.28-10.66,20.8,20.8,0,0,0-12.44-3.79q-22.63,0-22.62,24.68a29.67,29.67,0,0,0,1.07,8.16Z"/><path class="cls-12" d="M266.57,121.43V89.69H254.66v27.43a18,18,0,0,1-.45,4.31Z"/><path class="cls-13" d="M238.93,121.43a12.36,12.36,0,0,1-1.28-5.75v-26H225.71v31.74Z"/><path class="cls-14" d="M283.86,121.43c-1.29-2.24-1.94-5.28-1.94-9.14q0-13.74,10.93-13.76t10.83,13.76c0,3.86-.65,6.9-1.92,9.14h12.69a29.35,29.35,0,0,0,1.34-9.09q0-10.77-6.18-17.26t-16.75-6.49q-10.78,0-17,6.57c-4.14,4.39-6.23,10.11-6.23,17.18a28.76,28.76,0,0,0,1.38,9.09Z"/><path class="cls-15" d="M331.53,121.43V106.94q0-8.41,7.62-8.42a8.31,8.31,0,0,1,6.84,2.9,11.14,11.14,0,0,1,2.38,7.39v12.62h11.77V89.69H348.87v4a14.23,14.23,0,0,1-.06,2.37c0-.06,0-.08-.1-.08q-4.48-7.65-13.72-7.65a14.44,14.44,0,0,0-10.57,4.16q-4.82,4.57-4.84,12.66v16.27Z"/><path class="cls-16" d="M391.76,121.21a.36.36,0,0,1,0,.22h11.83v-.22Z"/><path class="cls-17" d="M378.59,99a11.44,11.44,0,0,1,6.25-1.61,11.67,11.67,0,0,1,5.72,1.31,3.91,3.91,0,0,1,2.44,3.4q0,2.8-7.2,4.41c-7.11,1.65-11.61,2.92-13.46,3.83q-7.21,3.49-7.21,10.71v.39h12.06c1-1.12,3.21-2.07,6.76-2.85,7.07-1.58,11.63-2.87,13.67-3.82,4.87-2.38,7.29-5.91,7.29-10.61a14.86,14.86,0,0,0-2.36-8.42q-5.07-7.38-17.61-7.39a26.4,26.4,0,0,0-14.63,3.92q-6.79,4.41-6.87,11.89h12.3A5.86,5.86,0,0,1,378.59,99Z"/><g class="cls-18"><g class="cls-18"><path class="cls-1" d="M166.58,122.32l-1-12.87c-.09-1.32-.15-3-.15-3.6-.15.69-.42,2-.81,3.33l-3.78,13.14h-2.94l-3.45-12.57c-.39-1.38-.78-3.24-.9-3.93,0,.69-.12,2.67-.21,4l-.9,12.54h-3.39L151,101.56h4.59l3.18,11.76c.48,1.74.66,2.91.78,3.54a33.25,33.25,0,0,1,.75-3.48l3.27-11.82h4.59L170,122.32Z"/></g><g class="cls-18"><path class="cls-1" d="M185.75,122.95a3.56,3.56,0,0,1-2.07-2,5.16,5.16,0,0,1-4.17,1.86c-3.48,0-5-1.92-5-4.56,0-3.51,2.64-5.28,7.5-5.28h1v-.81c0-1.74-.3-2.67-2.1-2.67a9.18,9.18,0,0,0-4.53,1.74l-1.47-2.37a11.38,11.38,0,0,1,6.45-2.07c2.37,0,4,.87,4.62,2.52.27.66.27,1.47.24,3.72l-.06,4.35c0,2,.15,2.7,1.32,3.51Zm-3.42-7.8c-3.3,0-4.29,1-4.29,2.88a2.06,2.06,0,0,0,2.1,2.34,3.43,3.43,0,0,0,2.73-1.59l.06-3.6S182.57,115.15,182.33,115.15Z"/></g><g class="cls-18"><path class="cls-1" d="M196.43,122.71c-2.94,0-4-1.74-4-3.9v-9.39h-1.68v-2.28h1.68a30.15,30.15,0,0,1,.15-3.75l3.39-.81a42,42,0,0,0-.27,4.56h3.63l-.87,2.28h-2.79v8.52c0,1.89.42,2.43,1.86,2.43a3.85,3.85,0,0,0,1.41-.3l.42,2A7,7,0,0,1,196.43,122.71Z"/></g><g class="cls-18"><path class="cls-1" d="M206.48,115.63v.24c0,2.1.78,4.32,3.75,4.32a5.59,5.59,0,0,0,3.78-1.5l1.29,2a8.2,8.2,0,0,1-5.46,2c-4.29,0-7-3.09-7-7.95,0-2.67.57-4.44,1.89-5.94a5.77,5.77,0,0,1,4.65-2,5.86,5.86,0,0,1,4.17,1.56c1.32,1.2,2,3.06,2,6.6v.69Zm2.91-6.36c-1.86,0-2.88,1.47-2.88,3.93h5.61C212.12,110.74,211,109.27,209.39,109.27Z"/><path class="cls-1" d="M227.69,110a2.47,2.47,0,0,0-.93-.21,3,3,0,0,0-2.85,2.25v10.26h-3.3V111.61a12.07,12.07,0,0,0-.54-4.08l3-.78a5.33,5.33,0,0,1,.57,2.4c1.2-1.65,2.4-2.43,3.87-2.43a2.48,2.48,0,0,1,1.17.24Z"/></g><g class="cls-18"><path class="cls-1" d="M234,104.89a2.15,2.15,0,0,1-2.13-2.19,2.18,2.18,0,1,1,2.13,2.19Zm-1.65,17.43V107.38l3.33-.6v15.54Z"/></g><g class="cls-18"><path class="cls-1" d="M252,122.95a3.56,3.56,0,0,1-2.07-2,5.16,5.16,0,0,1-4.17,1.86c-3.48,0-5-1.92-5-4.56,0-3.51,2.64-5.28,7.5-5.28h1v-.81c0-1.74-.3-2.67-2.1-2.67a9.18,9.18,0,0,0-4.53,1.74l-1.47-2.37a11.39,11.39,0,0,1,6.45-2.07c2.37,0,4,.87,4.62,2.52.27.66.27,1.47.24,3.72l-.06,4.35c0,2,.15,2.7,1.32,3.51Zm-3.42-7.8c-3.3,0-4.29,1-4.29,2.88a2.06,2.06,0,0,0,2.1,2.34,3.43,3.43,0,0,0,2.73-1.59l.06-3.6S248.87,115.15,248.63,115.15Z"/></g><g class="cls-18"><path class="cls-1" d="M262.1,122.65c-3.33,0-3.33-3-3.33-4.29V105.43a24.6,24.6,0,0,0-.3-4.44l3.39-.75a18.32,18.32,0,0,1,.27,4.17v12.87c0,2,.09,2.37.33,2.73a.93.93,0,0,0,1.08.24l.54,2A5.18,5.18,0,0,1,262.1,122.65Z"/></g><g class="cls-18"><path class="cls-1" d="M282.83,122.65a4.59,4.59,0,0,1-3.69-1.74,3.74,3.74,0,0,1-.42,1.41h-3a8.53,8.53,0,0,0,.39-3.39V104.62a12.11,12.11,0,0,0-.39-3.66l3.42-.75a16.27,16.27,0,0,1,.24,3v3.54a8.31,8.31,0,0,1-.09,1.44l.12,0a4.82,4.82,0,0,1,3.6-1.47c3.63,0,5.91,3,5.91,7.71S286.37,122.65,282.83,122.65Zm-.57-13.08a3.62,3.62,0,0,0-2.88,1.53v7.41a3.94,3.94,0,0,0,2.82,1.32c2.07,0,3-1.5,3-5.31C285.17,111.79,284.63,109.57,282.26,109.57Z"/></g><g class="cls-18"><path class="cls-1" d="M304.37,122.95a3.56,3.56,0,0,1-2.07-2,5.16,5.16,0,0,1-4.17,1.86c-3.48,0-5-1.92-5-4.56,0-3.51,2.64-5.28,7.5-5.28h1v-.81c0-1.74-.3-2.67-2.1-2.67a9.18,9.18,0,0,0-4.53,1.74l-1.47-2.37a11.39,11.39,0,0,1,6.45-2.07c2.37,0,4,.87,4.62,2.52.27.66.27,1.47.24,3.72l-.06,4.35c0,2,.15,2.7,1.32,3.51Zm-3.42-7.8c-3.3,0-4.29,1-4.29,2.88a2.06,2.06,0,0,0,2.1,2.34,3.43,3.43,0,0,0,2.73-1.59l.06-3.6S301.19,115.15,300.95,115.15Z"/><path class="cls-1" d="M319.37,122.32V112.24c0-2.07-.48-2.64-1.74-2.64a5.5,5.5,0,0,0-3.33,1.71v11h-3.24V111.16a9,9,0,0,0-.57-3.6l3-.84a4.45,4.45,0,0,1,.54,2.16,7.09,7.09,0,0,1,4.65-2.1c2.34,0,4,1.41,4,4.2v11.34Z"/></g><g class="cls-18"><path class="cls-1" d="M329,122.32V104.65a16.9,16.9,0,0,0-.33-3.66l3.3-.81a23.57,23.57,0,0,1,.3,4v18.12Zm9.24,0-5.73-8.58,4.5-6.6h4l-5.19,6.42,6.42,8.76Z"/></g></g></svg>