<?xml version="1.0" encoding="utf-8"?>
<!-- Generator: Adobe Illustrator 16.0.3, SVG Export Plug-In . SVG Version: 6.00 Build 0)  -->
<!DOCTYPE svg PUBLIC "-//W3C//DTD SVG 1.1//EN" "http://www.w3.org/Graphics/SVG/1.1/DTD/svg11.dtd">
<svg version="1.1" id="Layer_1" xmlns="http://www.w3.org/2000/svg" xmlns:xlink="http://www.w3.org/1999/xlink" x="0px" y="0px"
	 width="30.992px" height="12.36px" viewBox="0 0 30.992 12.36" enable-background="new 0 0 30.992 12.36" xml:space="preserve">
<g>
	<path fill="#8DC63F" d="M3.212,7.539c0,0.392-0.02,0.692-0.06,0.9c-0.06,0.343-0.176,0.61-0.349,0.804
		C2.521,9.551,2.127,9.705,1.616,9.705c-0.315,0-0.603-0.067-0.86-0.201C0.475,9.355,0.273,9.148,0.154,8.885
		C0.051,8.643,0,8.373,0,8.075V4.524h1.037v1.064h2.175v0.752H1.037v1.631c0,0.202,0.016,0.355,0.045,0.46
		C1.152,8.67,1.334,8.79,1.631,8.79c0.175,0,0.308-0.054,0.401-0.156c0.14-0.15,0.208-0.471,0.208-0.962V6.95h0.972V7.539z"/>
	<path fill="#8DC63F" d="M4.67,6.341H3.623V5.589H4.67V6.341z M4.67,9.556H3.623V6.95H4.67V9.556z"/>
	<path fill="#8DC63F" d="M10.775,9.556H9.752V7.165c0-0.259-0.065-0.461-0.194-0.609c-0.107-0.133-0.247-0.2-0.415-0.2
		c-0.178,0-0.332,0.072-0.459,0.216c-0.14,0.157-0.209,0.366-0.209,0.623v2.361H7.43V7.174c0-0.269-0.032-0.459-0.096-0.574
		c-0.096-0.152-0.271-0.23-0.527-0.23c-0.426,0-0.639,0.259-0.639,0.775v2.411H5.122V5.589h0.987v0.379
		c0,0.145,0.001,0.217,0.006,0.217c0-0.006,0.002-0.01,0.008-0.017c0.153-0.236,0.31-0.408,0.469-0.513
		c0.178-0.114,0.4-0.172,0.668-0.172c0.266,0,0.48,0.049,0.641,0.146c0.16,0.097,0.313,0.261,0.457,0.493
		C8.5,5.916,8.654,5.758,8.82,5.647c0.166-0.108,0.367-0.164,0.604-0.164c0.252,0,0.494,0.065,0.725,0.194
		c0.23,0.128,0.392,0.295,0.486,0.499c0.092,0.206,0.141,0.42,0.141,0.643V9.556z"/>
	<path fill="#8DC63F" d="M14.766,7.851h-2.722c0.024,0.325,0.128,0.577,0.311,0.754c0.159,0.148,0.351,0.222,0.579,0.222
		c0.168,0,0.319-0.038,0.453-0.119c0.133-0.079,0.219-0.186,0.26-0.318h1.068c-0.118,0.401-0.332,0.713-0.638,0.933
		c-0.308,0.222-0.671,0.331-1.092,0.331c-1.32,0-1.979-0.72-1.979-2.162c0-0.609,0.166-1.096,0.499-1.459
		c0.334-0.364,0.804-0.548,1.406-0.548C14.148,5.483,14.766,6.273,14.766,7.851z M13.698,7.188
		c-0.025-0.267-0.115-0.479-0.271-0.633c-0.156-0.153-0.336-0.23-0.538-0.23c-0.198,0-0.368,0.072-0.512,0.216
		c-0.159,0.154-0.259,0.371-0.297,0.647H13.698z"/>
	<g>
		<path fill="#8DC63F" d="M17.758,9.713c-0.59,0-0.982-0.249-1.39-0.603c0,0,0.026,0.733,0.026,1.035v1.953l-1.206,0.262V4.562
			c0-0.904-0.104-1.376-0.144-1.56l1.166-0.21c0,0,0.092,0.341,0.078,0.865c0.381-0.524,0.932-0.839,1.574-0.839
			c1.113,0,2.188,0.773,2.188,3.329C20.051,8.927,18.78,9.713,17.758,9.713z M17.652,3.88c-0.55,0-0.891,0.263-1.258,0.747v3.421
			c0.341,0.42,0.643,0.669,1.102,0.669c1.231,0,1.284-1.521,1.284-2.412C18.78,5.506,18.819,3.88,17.652,3.88z"/>
		<path fill="#8DC63F" d="M24.585,9.792C24.271,9.49,24.152,9.254,24.087,8.9c-0.433,0.576-0.944,0.865-1.718,0.865
			c-0.498,0-0.904-0.131-1.192-0.406c-0.406-0.381-0.563-0.957-0.563-1.704V3.002l1.193-0.184v4.823
			c0,0.485,0.064,0.787,0.288,0.971c0.144,0.117,0.341,0.184,0.616,0.184c0.537,0,0.878-0.354,1.219-0.931V3.015l1.18-0.17v4.811
			c0,0.786,0.117,1.141,0.38,1.455L24.585,9.792z"/>
		<path fill="#8DC63F" d="M28.686,9.726c-0.682,0-1.153-0.327-1.455-0.772c-0.025,0.235-0.039,0.366-0.145,0.603h-1.101
			c0.104-0.354,0.144-0.76,0.144-1.56V1.6c0-0.786-0.104-1.232-0.131-1.363L27.191,0c0.014,0.066,0.131,0.538,0.131,1.351v1.599
			c0,0.224-0.025,0.604-0.025,0.604c0.327-0.38,0.772-0.747,1.48-0.747c1.455,0,2.215,1.323,2.215,3.342
			C30.992,7.799,30.337,9.726,28.686,9.726z M28.488,3.894c-0.484,0-0.917,0.314-1.166,0.694v3.435
			c0.249,0.354,0.682,0.629,1.141,0.629c1.219,0,1.232-1.665,1.232-2.517C29.695,5.309,29.629,3.894,28.488,3.894z"/>
	</g>
</g>
<g>
</g>
<g>
</g>
<g>
</g>
<g>
</g>
<g>
</g>
<g>
</g>
</svg>
