<?xml version="1.0" encoding="utf-8"?>
<!-- Generator: Adobe Illustrator 16.0.3, SVG Export Plug-In . SVG Version: 6.00 Build 0)  -->
<!DOCTYPE svg PUBLIC "-//W3C//DTD SVG 1.1//EN" "http://www.w3.org/Graphics/SVG/1.1/DTD/svg11.dtd">
<svg version="1.1" id="Layer_1" xmlns="http://www.w3.org/2000/svg" xmlns:xlink="http://www.w3.org/1999/xlink" x="0px" y="0px"
	 width="35.265px" height="9.817px" viewBox="0 0 35.265 9.817" enable-background="new 0 0 35.265 9.817" xml:space="preserve">
<g>
	<path fill="#8DC63F" d="M3.212,7.538c0,0.392-0.019,0.692-0.059,0.9C3.094,8.782,2.977,9.05,2.805,9.242
		C2.522,9.55,2.127,9.704,1.617,9.704c-0.316,0-0.604-0.067-0.861-0.2c-0.281-0.148-0.482-0.356-0.6-0.62
		C0.051,8.643,0,8.372,0,8.074V4.523h1.039v1.064h2.173v0.753H1.039v1.63c0,0.202,0.014,0.355,0.044,0.461
		C1.152,8.669,1.336,8.79,1.632,8.79c0.173,0,0.308-0.055,0.4-0.156C2.171,8.482,2.24,8.162,2.24,7.671V6.949h0.972V7.538z"/>
	<path fill="#8DC63F" d="M4.67,6.341H3.623V5.588H4.67V6.341z M4.67,9.555H3.623V6.949H4.67V9.555z"/>
	<path fill="#8DC63F" d="M10.775,9.555H9.752V7.164c0-0.258-0.064-0.46-0.194-0.608C9.45,6.422,9.311,6.354,9.143,6.354
		c-0.178,0-0.332,0.073-0.459,0.216C8.545,6.729,8.475,6.937,8.475,7.194v2.36H7.43V7.174c0-0.27-0.031-0.46-0.096-0.575
		c-0.095-0.152-0.27-0.23-0.527-0.23c-0.426,0-0.639,0.259-0.639,0.775v2.411H5.122V5.588h0.987v0.379
		c0,0.145,0.002,0.218,0.007,0.218c0-0.007,0.003-0.011,0.008-0.017c0.153-0.237,0.31-0.408,0.468-0.514
		c0.178-0.113,0.4-0.171,0.668-0.171c0.266,0,0.48,0.048,0.641,0.146S8.215,5.89,8.357,6.123C8.501,5.916,8.654,5.757,8.82,5.646
		c0.166-0.108,0.367-0.163,0.604-0.163c0.252,0,0.493,0.064,0.724,0.194c0.23,0.128,0.393,0.294,0.486,0.499
		c0.093,0.206,0.141,0.42,0.141,0.643V9.555z"/>
	<path fill="#8DC63F" d="M14.766,7.851h-2.722c0.024,0.325,0.128,0.577,0.312,0.754c0.158,0.148,0.35,0.221,0.578,0.221
		c0.168,0,0.32-0.038,0.453-0.119c0.133-0.079,0.22-0.186,0.26-0.318h1.068c-0.118,0.402-0.332,0.713-0.638,0.933
		c-0.308,0.222-0.671,0.332-1.091,0.332c-1.321,0-1.98-0.721-1.98-2.163c0-0.608,0.167-1.095,0.5-1.459
		c0.334-0.364,0.803-0.547,1.406-0.547C14.148,5.483,14.766,6.272,14.766,7.851z M13.699,7.188
		c-0.026-0.267-0.115-0.479-0.271-0.632c-0.156-0.154-0.336-0.23-0.538-0.23c-0.198,0-0.368,0.071-0.512,0.215
		c-0.159,0.155-0.259,0.371-0.297,0.647H13.699z"/>
	<g>
		<path fill="#8DC63F" d="M17.745,9.726c-0.682,0-1.153-0.327-1.455-0.772c-0.026,0.235-0.039,0.366-0.144,0.603h-1.102
			c0.105-0.354,0.145-0.76,0.145-1.56V1.6c0-0.786-0.105-1.232-0.131-1.363L16.251,0c0.013,0.066,0.131,0.538,0.131,1.351v1.599
			c0,0.224-0.026,0.604-0.026,0.604c0.328-0.38,0.773-0.747,1.481-0.747c1.455,0,2.215,1.323,2.215,3.342
			C20.052,7.799,19.396,9.726,17.745,9.726z M17.549,3.894c-0.485,0-0.918,0.314-1.167,0.694v3.435
			c0.249,0.354,0.682,0.629,1.141,0.629c1.219,0,1.231-1.665,1.231-2.517C18.754,5.309,18.689,3.894,17.549,3.894z"/>
		<path fill="#8DC63F" d="M24.678,9.817c-0.354-0.131-0.682-0.484-0.787-0.878c-0.472,0.537-0.93,0.786-1.599,0.786
			c-1.416,0-1.874-0.982-1.874-1.952c0-1.429,1.074-2.281,2.909-2.281c0.196,0,0.38,0.014,0.38,0.014V5.033
			c0-0.484-0.025-0.786-0.17-0.97c-0.157-0.196-0.354-0.288-0.655-0.288c-0.643,0-1.351,0.328-1.757,0.721l-0.537-0.839
			c0.747-0.563,1.586-0.865,2.451-0.865c0.878,0,1.494,0.367,1.73,1.075c0.117,0.341,0.144,0.773,0.131,1.337l-0.053,2.241
			c-0.026,0.918,0.039,1.245,0.459,1.521L24.678,9.817z M23.367,6.345c-1.167-0.014-1.691,0.524-1.691,1.35
			c0,0.669,0.288,1.075,0.852,1.075c0.473,0,0.932-0.328,1.141-0.8l0.014-1.6C23.682,6.37,23.484,6.345,23.367,6.345z"/>
		<path fill="#8DC63F" d="M27.756,9.739c-0.747,0-1.547-0.249-2.189-0.694l0.459-0.918c0.551,0.394,1.193,0.655,1.796,0.655
			s0.996-0.419,0.996-0.996c0-0.563-0.472-0.8-1.022-0.996l-0.498-0.184c-0.813-0.302-1.48-0.839-1.48-1.782
			c0-1.232,0.864-2.084,2.109-2.084c0.695,0,1.324,0.209,1.849,0.537l-0.407,0.892c-0.484-0.275-0.904-0.473-1.389-0.473
			c-0.551,0-0.918,0.394-0.918,0.839c0,0.551,0.275,0.8,0.918,1.036l0.524,0.196c0.747,0.275,1.533,0.8,1.533,1.809
			C30.036,8.9,29.105,9.739,27.756,9.739z"/>
		<path fill="#8DC63F" d="M31.778,6.515v0.145c0,0.524,0.039,0.982,0.249,1.363c0.262,0.484,0.721,0.707,1.232,0.707
			c0.537,0,0.996-0.235,1.415-0.629l0.472,0.747c-0.576,0.577-1.271,0.865-2.045,0.865c-1.664,0-2.635-1.311-2.635-3.5
			c0-1.127,0.197-1.9,0.682-2.542c0.459-0.604,1.075-0.879,1.797-0.879c0.668,0,1.244,0.263,1.638,0.722
			c0.498,0.59,0.682,1.271,0.682,2.778v0.223H31.778z M33.822,4.221c-0.17-0.327-0.432-0.537-0.891-0.537
			c-0.773,0-1.114,0.694-1.153,1.953h2.255C34.02,5.021,33.967,4.51,33.822,4.221z"/>
	</g>
</g>
<g>
</g>
<g>
</g>
<g>
</g>
<g>
</g>
<g>
</g>
<g>
</g>
</svg>
