<svg id="Layer_1" data-name="Layer 1" xmlns="http://www.w3.org/2000/svg" viewBox="0 0 22 24"><defs><style>.cls-1{fill:#2695b6;}</style></defs><title>user</title><path class="cls-1" d="M16.63,17.38a9.83,9.83,0,0,1-9.25,0C4.4,18.16,2.07,20,1,24H23C21.93,20,19.6,18.16,16.63,17.38Z" transform="translate(-1 0)"/><path class="cls-1" d="M12,16A8,8,0,1,0,4,8,8,8,0,0,0,12,16ZM14.14,4.82A1.53,1.53,0,1,1,14.41,7,1.53,1.53,0,0,1,14.14,4.82Zm-7,0A1.53,1.53,0,1,1,7.41,7,1.53,1.53,0,0,1,7.14,4.82Zm10.2,5.83a5.94,5.94,0,0,1-10.69,0Z" transform="translate(-1 0)"/></svg>